<svg xmlns="http://www.w3.org/2000/svg" viewBox="0 0 800 800" opacity=".64"><defs><linearGradient x1="50%" y1="0%" x2="50%" y2="100%" id="a"><stop stop-color="hsl(184, 74%, 44%)" offset="45%"/><stop stop-color="hsl(332, 87%, 70%)" offset="100%"/></linearGradient><linearGradient x1="50%" y1="0%" x2="50%" y2="100%" id="b"><stop stop-color="hsl(332, 87%, 70%)" offset="0%"/><stop stop-color="hsl(184, 74%, 44%)" offset="45%"/></linearGradient><linearGradient gradientTransform="rotate(270)" x1="50%" y1="0%" x2="50%" y2="100%" id="c"><stop stop-color="hsl(184, 74%, 44%)" offset="45%"/><stop stop-color="hsl(332, 87%, 70%)" offset="100%"/></linearGradient><linearGradient gradientTransform="rotate(270)" x1="50%" y1="0%" x2="50%" y2="100%" id="d"><stop stop-color="hsl(332, 87%, 70%)" offset="0%"/><stop stop-color="hsl(184, 74%, 44%)" offset="45%"/></linearGradient></defs><g stroke-width="2.5" stroke="url(#a)" fill="none"><circle r="1968" cx="50%"/><circle r="1906.5" cx="50%"/><circle r="1845" cx="50%"/><circle r="1783.5" cx="50%"/><circle r="1722" cx="50%"/><circle r="1660.5" cx="50%"/><circle r="1599" cx="50%"/><circle r="1537.5" cx="50%"/><circle r="1476" cx="50%"/><circle r="1414.5" cx="50%"/><circle r="1353" cx="50%"/><circle r="1291.5" cx="50%"/><circle r="1230" cx="50%"/><circle r="1168.5" cx="50%"/><circle r="1107" cx="50%"/><circle r="1045.5" cx="50%"/><circle r="984" cx="50%"/><circle r="922.5" cx="50%"/><circle r="861" cx="50%"/><circle r="799.5" cx="50%"/><circle r="738" cx="50%"/><circle r="676.5" cx="50%"/><circle r="615" cx="50%"/><circle r="553.5" cx="50%"/><circle r="492" cx="50%"/><circle r="430.5" cx="50%"/><circle r="369" cx="50%"/><circle r="307.5" cx="50%"/><circle r="246" cx="50%"/><circle r="184.5" cx="50%"/><circle r="123" cx="50%"/><circle r="61.5" cx="50%"/></g><g stroke-width="2.5" stroke="url(#b)" fill="none"><circle r="1968" cx="50%" cy="100%"/><circle r="1906.5" cx="50%" cy="100%"/><circle r="1845" cx="50%" cy="100%"/><circle r="1783.5" cx="50%" cy="100%"/><circle r="1722" cx="50%" cy="100%"/><circle r="1660.5" cx="50%" cy="100%"/><circle r="1599" cx="50%" cy="100%"/><circle r="1537.5" cx="50%" cy="100%"/><circle r="1476" cx="50%" cy="100%"/><circle r="1414.5" cx="50%" cy="100%"/><circle r="1353" cx="50%" cy="100%"/><circle r="1291.5" cx="50%" cy="100%"/><circle r="1230" cx="50%" cy="100%"/><circle r="1168.5" cx="50%" cy="100%"/><circle r="1107" cx="50%" cy="100%"/><circle r="1045.5" cx="50%" cy="100%"/><circle r="984" cx="50%" cy="100%"/><circle r="922.5" cx="50%" cy="100%"/><circle r="861" cx="50%" cy="100%"/><circle r="799.5" cx="50%" cy="100%"/><circle r="738" cx="50%" cy="100%"/><circle r="676.5" cx="50%" cy="100%"/><circle r="615" cx="50%" cy="100%"/><circle r="553.5" cx="50%" cy="100%"/><circle r="492" cx="50%" cy="100%"/><circle r="430.5" cx="50%" cy="100%"/><circle r="369" cx="50%" cy="100%"/><circle r="307.5" cx="50%" cy="100%"/><circle r="246" cx="50%" cy="100%"/><circle r="184.5" cx="50%" cy="100%"/><circle r="123" cx="50%" cy="100%"/><circle r="61.5" cx="50%" cy="100%"/></g><g stroke-width="2.5" stroke="url(#c)" fill="none"><circle r="1968" cy="50%"/><circle r="1906.5" cy="50%"/><circle r="1845" cy="50%"/><circle r="1783.5" cy="50%"/><circle r="1722" cy="50%"/><circle r="1660.5" cy="50%"/><circle r="1599" cy="50%"/><circle r="1537.5" cy="50%"/><circle r="1476" cy="50%"/><circle r="1414.5" cy="50%"/><circle r="1353" cy="50%"/><circle r="1291.5" cy="50%"/><circle r="1230" cy="50%"/><circle r="1168.5" cy="50%"/><circle r="1107" cy="50%"/><circle r="1045.5" cy="50%"/><circle r="984" cy="50%"/><circle r="922.5" cy="50%"/><circle r="861" cy="50%"/><circle r="799.5" cy="50%"/><circle r="738" cy="50%"/><circle r="676.5" cy="50%"/><circle r="615" cy="50%"/><circle r="553.5" cy="50%"/><circle r="492" cy="50%"/><circle r="430.5" cy="50%"/><circle r="369" cy="50%"/><circle r="307.5" cy="50%"/><circle r="246" cy="50%"/><circle r="184.5" cy="50%"/><circle r="123" cy="50%"/><circle r="61.5" cy="50%"/></g><g stroke-width="2.5" stroke="url(#d)" fill="none"><circle r="1968" cx="100%" cy="50%"/><circle r="1906.5" cx="100%" cy="50%"/><circle r="1845" cx="100%" cy="50%"/><circle r="1783.5" cx="100%" cy="50%"/><circle r="1722" cx="100%" cy="50%"/><circle r="1660.5" cx="100%" cy="50%"/><circle r="1599" cx="100%" cy="50%"/><circle r="1537.5" cx="100%" cy="50%"/><circle r="1476" cx="100%" cy="50%"/><circle r="1414.5" cx="100%" cy="50%"/><circle r="1353" cx="100%" cy="50%"/><circle r="1291.5" cx="100%" cy="50%"/><circle r="1230" cx="100%" cy="50%"/><circle r="1168.5" cx="100%" cy="50%"/><circle r="1107" cx="100%" cy="50%"/><circle r="1045.5" cx="100%" cy="50%"/><circle r="984" cx="100%" cy="50%"/><circle r="922.5" cx="100%" cy="50%"/><circle r="861" cx="100%" cy="50%"/><circle r="799.5" cx="100%" cy="50%"/><circle r="738" cx="100%" cy="50%"/><circle r="676.5" cx="100%" cy="50%"/><circle r="615" cx="100%" cy="50%"/><circle r="553.5" cx="100%" cy="50%"/><circle r="492" cx="100%" cy="50%"/><circle r="430.5" cx="100%" cy="50%"/><circle r="369" cx="100%" cy="50%"/><circle r="307.5" cx="100%" cy="50%"/><circle r="246" cx="100%" cy="50%"/><circle r="184.5" cx="100%" cy="50%"/><circle r="123" cx="100%" cy="50%"/><circle r="61.5" cx="100%" cy="50%"/></g></svg>