<svg id="backgrounds" xmlns="http://www.w3.org/2000/svg" version="1.1" xmlns:xlink="http://www.w3.org/1999/xlink">
	<symbol id="backgroundOne" class="background-svg" viewBox="0 0 800 800" opacity="0.64">
		<defs><linearGradient x1="50%" y1="0%" x2="50%" y2="100%" id="rrreflection-grad"><stop stop-color="hsl(184, 74%, 44%)" stop-opacity="1" offset="45%"></stop><stop stop-color="hsl(332, 87%, 70%)" stop-opacity="1" offset="100%"></stop></linearGradient><linearGradient x1="50%" y1="0%" x2="50%" y2="100%" id="rrreflection-grad-2"><stop stop-color="hsl(332, 87%, 70%)" stop-opacity="1" offset="0%"></stop><stop stop-color="hsl(184, 74%, 44%)" stop-opacity="1" offset="45%"></stop></linearGradient><linearGradient gradientTransform="rotate(270)" x1="50%" y1="0%" x2="50%" y2="100%" id="rrreflection-grad-3"><stop stop-color="hsl(184, 74%, 44%)" stop-opacity="1" offset="45%"></stop><stop stop-color="hsl(332, 87%, 70%)" stop-opacity="1" offset="100%"></stop></linearGradient><linearGradient gradientTransform="rotate(270)" x1="50%" y1="0%" x2="50%" y2="100%" id="rrreflection-grad-4"><stop stop-color="hsl(332, 87%, 70%)" stop-opacity="1" offset="0%"></stop><stop stop-color="hsl(184, 74%, 44%)" stop-opacity="1" offset="45%"></stop></linearGradient></defs><g stroke-width="2.5" stroke="url(#rrreflection-grad)" fill="none"><circle r="576" cx="50%" cy="0"></circle><circle r="558" cx="50%" cy="0"></circle><circle r="540" cx="50%" cy="0"></circle><circle r="522" cx="50%" cy="0"></circle><circle r="504" cx="50%" cy="0"></circle><circle r="486" cx="50%" cy="0"></circle><circle r="468" cx="50%" cy="0"></circle><circle r="450" cx="50%" cy="0"></circle><circle r="432" cx="50%" cy="0"></circle><circle r="414" cx="50%" cy="0"></circle><circle r="396" cx="50%" cy="0"></circle><circle r="378" cx="50%" cy="0"></circle><circle r="360" cx="50%" cy="0"></circle><circle r="342" cx="50%" cy="0"></circle><circle r="324" cx="50%" cy="0"></circle><circle r="306" cx="50%" cy="0"></circle><circle r="288" cx="50%" cy="0"></circle><circle r="270" cx="50%" cy="0"></circle><circle r="252" cx="50%" cy="0"></circle><circle r="234" cx="50%" cy="0"></circle><circle r="216" cx="50%" cy="0"></circle><circle r="198" cx="50%" cy="0"></circle><circle r="180" cx="50%" cy="0"></circle><circle r="162" cx="50%" cy="0"></circle><circle r="144" cx="50%" cy="0"></circle><circle r="126" cx="50%" cy="0"></circle><circle r="108" cx="50%" cy="0"></circle><circle r="90" cx="50%" cy="0"></circle><circle r="72" cx="50%" cy="0"></circle><circle r="54" cx="50%" cy="0"></circle><circle r="36" cx="50%" cy="0"></circle><circle r="18" cx="50%" cy="0"></circle></g><g stroke-width="2.5" stroke="url(#rrreflection-grad-2)" fill="none"><circle r="576" cx="50%" cy="100%"></circle><circle r="558" cx="50%" cy="100%"></circle><circle r="540" cx="50%" cy="100%"></circle><circle r="522" cx="50%" cy="100%"></circle><circle r="504" cx="50%" cy="100%"></circle><circle r="486" cx="50%" cy="100%"></circle><circle r="468" cx="50%" cy="100%"></circle><circle r="450" cx="50%" cy="100%"></circle><circle r="432" cx="50%" cy="100%"></circle><circle r="414" cx="50%" cy="100%"></circle><circle r="396" cx="50%" cy="100%"></circle><circle r="378" cx="50%" cy="100%"></circle><circle r="360" cx="50%" cy="100%"></circle><circle r="342" cx="50%" cy="100%"></circle><circle r="324" cx="50%" cy="100%"></circle><circle r="306" cx="50%" cy="100%"></circle><circle r="288" cx="50%" cy="100%"></circle><circle r="270" cx="50%" cy="100%"></circle><circle r="252" cx="50%" cy="100%"></circle><circle r="234" cx="50%" cy="100%"></circle><circle r="216" cx="50%" cy="100%"></circle><circle r="198" cx="50%" cy="100%"></circle><circle r="180" cx="50%" cy="100%"></circle><circle r="162" cx="50%" cy="100%"></circle><circle r="144" cx="50%" cy="100%"></circle><circle r="126" cx="50%" cy="100%"></circle><circle r="108" cx="50%" cy="100%"></circle><circle r="90" cx="50%" cy="100%"></circle><circle r="72" cx="50%" cy="100%"></circle><circle r="54" cx="50%" cy="100%"></circle><circle r="36" cx="50%" cy="100%"></circle><circle r="18" cx="50%" cy="100%"></circle></g><g stroke-width="2.5" stroke="url(#rrreflection-grad-3)" fill="none"><circle r="576" cx="0" cy="50%"></circle><circle r="558" cx="0" cy="50%"></circle><circle r="540" cx="0" cy="50%"></circle><circle r="522" cx="0" cy="50%"></circle><circle r="504" cx="0" cy="50%"></circle><circle r="486" cx="0" cy="50%"></circle><circle r="468" cx="0" cy="50%"></circle><circle r="450" cx="0" cy="50%"></circle><circle r="432" cx="0" cy="50%"></circle><circle r="414" cx="0" cy="50%"></circle><circle r="396" cx="0" cy="50%"></circle><circle r="378" cx="0" cy="50%"></circle><circle r="360" cx="0" cy="50%"></circle><circle r="342" cx="0" cy="50%"></circle><circle r="324" cx="0" cy="50%"></circle><circle r="306" cx="0" cy="50%"></circle><circle r="288" cx="0" cy="50%"></circle><circle r="270" cx="0" cy="50%"></circle><circle r="252" cx="0" cy="50%"></circle><circle r="234" cx="0" cy="50%"></circle><circle r="216" cx="0" cy="50%"></circle><circle r="198" cx="0" cy="50%"></circle><circle r="180" cx="0" cy="50%"></circle><circle r="162" cx="0" cy="50%"></circle><circle r="144" cx="0" cy="50%"></circle><circle r="126" cx="0" cy="50%"></circle><circle r="108" cx="0" cy="50%"></circle><circle r="90" cx="0" cy="50%"></circle><circle r="72" cx="0" cy="50%"></circle><circle r="54" cx="0" cy="50%"></circle><circle r="36" cx="0" cy="50%"></circle><circle r="18" cx="0" cy="50%"></circle></g><g stroke-width="2.5" stroke="url(#rrreflection-grad-4)" fill="none"><circle r="576" cx="100%" cy="50%"></circle><circle r="558" cx="100%" cy="50%"></circle><circle r="540" cx="100%" cy="50%"></circle><circle r="522" cx="100%" cy="50%"></circle><circle r="504" cx="100%" cy="50%"></circle><circle r="486" cx="100%" cy="50%"></circle><circle r="468" cx="100%" cy="50%"></circle><circle r="450" cx="100%" cy="50%"></circle><circle r="432" cx="100%" cy="50%"></circle><circle r="414" cx="100%" cy="50%"></circle><circle r="396" cx="100%" cy="50%"></circle><circle r="378" cx="100%" cy="50%"></circle><circle r="360" cx="100%" cy="50%"></circle><circle r="342" cx="100%" cy="50%"></circle><circle r="324" cx="100%" cy="50%"></circle><circle r="306" cx="100%" cy="50%"></circle><circle r="288" cx="100%" cy="50%"></circle><circle r="270" cx="100%" cy="50%"></circle><circle r="252" cx="100%" cy="50%"></circle><circle r="234" cx="100%" cy="50%"></circle><circle r="216" cx="100%" cy="50%"></circle><circle r="198" cx="100%" cy="50%"></circle><circle r="180" cx="100%" cy="50%"></circle><circle r="162" cx="100%" cy="50%"></circle><circle r="144" cx="100%" cy="50%"></circle><circle r="126" cx="100%" cy="50%"></circle><circle r="108" cx="100%" cy="50%"></circle><circle r="90" cx="100%" cy="50%"></circle><circle r="72" cx="100%" cy="50%"></circle><circle r="54" cx="100%" cy="50%"></circle><circle r="36" cx="100%" cy="50%"></circle><circle r="18" cx="100%" cy="50%"></circle></g>
	</symbol>
	<symbol id="backgroundTwo" class="background-svg" viewBox="0 0 800 800" opacity="0.64">
		<defs><linearGradient x1="50%" y1="0%" x2="50%" y2="100%" id="rrreflection-grad"><stop stop-color="hsl(184, 74%, 44%)" stop-opacity="1" offset="45%"></stop><stop stop-color="hsl(332, 87%, 70%)" stop-opacity="1" offset="100%"></stop></linearGradient><linearGradient x1="50%" y1="0%" x2="50%" y2="100%" id="rrreflection-grad-2"><stop stop-color="hsl(332, 87%, 70%)" stop-opacity="1" offset="0%"></stop><stop stop-color="hsl(184, 74%, 44%)" stop-opacity="1" offset="45%"></stop></linearGradient><linearGradient gradientTransform="rotate(270)" x1="50%" y1="0%" x2="50%" y2="100%" id="rrreflection-grad-3"><stop stop-color="hsl(184, 74%, 44%)" stop-opacity="1" offset="45%"></stop><stop stop-color="hsl(332, 87%, 70%)" stop-opacity="1" offset="100%"></stop></linearGradient><linearGradient gradientTransform="rotate(270)" x1="50%" y1="0%" x2="50%" y2="100%" id="rrreflection-grad-4"><stop stop-color="hsl(332, 87%, 70%)" stop-opacity="1" offset="0%"></stop><stop stop-color="hsl(184, 74%, 44%)" stop-opacity="1" offset="45%"></stop></linearGradient></defs><g stroke-width="2.5" stroke="url(#rrreflection-grad)" fill="none"><circle r="1536" cx="50%" cy="0"></circle><circle r="1488" cx="50%" cy="0"></circle><circle r="1440" cx="50%" cy="0"></circle><circle r="1392" cx="50%" cy="0"></circle><circle r="1344" cx="50%" cy="0"></circle><circle r="1296" cx="50%" cy="0"></circle><circle r="1248" cx="50%" cy="0"></circle><circle r="1200" cx="50%" cy="0"></circle><circle r="1152" cx="50%" cy="0"></circle><circle r="1104" cx="50%" cy="0"></circle><circle r="1056" cx="50%" cy="0"></circle><circle r="1008" cx="50%" cy="0"></circle><circle r="960" cx="50%" cy="0"></circle><circle r="912" cx="50%" cy="0"></circle><circle r="864" cx="50%" cy="0"></circle><circle r="816" cx="50%" cy="0"></circle><circle r="768" cx="50%" cy="0"></circle><circle r="720" cx="50%" cy="0"></circle><circle r="672" cx="50%" cy="0"></circle><circle r="624" cx="50%" cy="0"></circle><circle r="576" cx="50%" cy="0"></circle><circle r="528" cx="50%" cy="0"></circle><circle r="480" cx="50%" cy="0"></circle><circle r="432" cx="50%" cy="0"></circle><circle r="384" cx="50%" cy="0"></circle><circle r="336" cx="50%" cy="0"></circle><circle r="288" cx="50%" cy="0"></circle><circle r="240" cx="50%" cy="0"></circle><circle r="192" cx="50%" cy="0"></circle><circle r="144" cx="50%" cy="0"></circle><circle r="96" cx="50%" cy="0"></circle><circle r="48" cx="50%" cy="0"></circle></g><g stroke-width="2.5" stroke="url(#rrreflection-grad-2)" fill="none"><circle r="1536" cx="50%" cy="100%"></circle><circle r="1488" cx="50%" cy="100%"></circle><circle r="1440" cx="50%" cy="100%"></circle><circle r="1392" cx="50%" cy="100%"></circle><circle r="1344" cx="50%" cy="100%"></circle><circle r="1296" cx="50%" cy="100%"></circle><circle r="1248" cx="50%" cy="100%"></circle><circle r="1200" cx="50%" cy="100%"></circle><circle r="1152" cx="50%" cy="100%"></circle><circle r="1104" cx="50%" cy="100%"></circle><circle r="1056" cx="50%" cy="100%"></circle><circle r="1008" cx="50%" cy="100%"></circle><circle r="960" cx="50%" cy="100%"></circle><circle r="912" cx="50%" cy="100%"></circle><circle r="864" cx="50%" cy="100%"></circle><circle r="816" cx="50%" cy="100%"></circle><circle r="768" cx="50%" cy="100%"></circle><circle r="720" cx="50%" cy="100%"></circle><circle r="672" cx="50%" cy="100%"></circle><circle r="624" cx="50%" cy="100%"></circle><circle r="576" cx="50%" cy="100%"></circle><circle r="528" cx="50%" cy="100%"></circle><circle r="480" cx="50%" cy="100%"></circle><circle r="432" cx="50%" cy="100%"></circle><circle r="384" cx="50%" cy="100%"></circle><circle r="336" cx="50%" cy="100%"></circle><circle r="288" cx="50%" cy="100%"></circle><circle r="240" cx="50%" cy="100%"></circle><circle r="192" cx="50%" cy="100%"></circle><circle r="144" cx="50%" cy="100%"></circle><circle r="96" cx="50%" cy="100%"></circle><circle r="48" cx="50%" cy="100%"></circle></g><g stroke-width="2.5" stroke="url(#rrreflection-grad-3)" fill="none"><circle r="1536" cx="0" cy="50%"></circle><circle r="1488" cx="0" cy="50%"></circle><circle r="1440" cx="0" cy="50%"></circle><circle r="1392" cx="0" cy="50%"></circle><circle r="1344" cx="0" cy="50%"></circle><circle r="1296" cx="0" cy="50%"></circle><circle r="1248" cx="0" cy="50%"></circle><circle r="1200" cx="0" cy="50%"></circle><circle r="1152" cx="0" cy="50%"></circle><circle r="1104" cx="0" cy="50%"></circle><circle r="1056" cx="0" cy="50%"></circle><circle r="1008" cx="0" cy="50%"></circle><circle r="960" cx="0" cy="50%"></circle><circle r="912" cx="0" cy="50%"></circle><circle r="864" cx="0" cy="50%"></circle><circle r="816" cx="0" cy="50%"></circle><circle r="768" cx="0" cy="50%"></circle><circle r="720" cx="0" cy="50%"></circle><circle r="672" cx="0" cy="50%"></circle><circle r="624" cx="0" cy="50%"></circle><circle r="576" cx="0" cy="50%"></circle><circle r="528" cx="0" cy="50%"></circle><circle r="480" cx="0" cy="50%"></circle><circle r="432" cx="0" cy="50%"></circle><circle r="384" cx="0" cy="50%"></circle><circle r="336" cx="0" cy="50%"></circle><circle r="288" cx="0" cy="50%"></circle><circle r="240" cx="0" cy="50%"></circle><circle r="192" cx="0" cy="50%"></circle><circle r="144" cx="0" cy="50%"></circle><circle r="96" cx="0" cy="50%"></circle><circle r="48" cx="0" cy="50%"></circle></g><g stroke-width="2.5" stroke="url(#rrreflection-grad-4)" fill="none"><circle r="1536" cx="100%" cy="50%"></circle><circle r="1488" cx="100%" cy="50%"></circle><circle r="1440" cx="100%" cy="50%"></circle><circle r="1392" cx="100%" cy="50%"></circle><circle r="1344" cx="100%" cy="50%"></circle><circle r="1296" cx="100%" cy="50%"></circle><circle r="1248" cx="100%" cy="50%"></circle><circle r="1200" cx="100%" cy="50%"></circle><circle r="1152" cx="100%" cy="50%"></circle><circle r="1104" cx="100%" cy="50%"></circle><circle r="1056" cx="100%" cy="50%"></circle><circle r="1008" cx="100%" cy="50%"></circle><circle r="960" cx="100%" cy="50%"></circle><circle r="912" cx="100%" cy="50%"></circle><circle r="864" cx="100%" cy="50%"></circle><circle r="816" cx="100%" cy="50%"></circle><circle r="768" cx="100%" cy="50%"></circle><circle r="720" cx="100%" cy="50%"></circle><circle r="672" cx="100%" cy="50%"></circle><circle r="624" cx="100%" cy="50%"></circle><circle r="576" cx="100%" cy="50%"></circle><circle r="528" cx="100%" cy="50%"></circle><circle r="480" cx="100%" cy="50%"></circle><circle r="432" cx="100%" cy="50%"></circle><circle r="384" cx="100%" cy="50%"></circle><circle r="336" cx="100%" cy="50%"></circle><circle r="288" cx="100%" cy="50%"></circle><circle r="240" cx="100%" cy="50%"></circle><circle r="192" cx="100%" cy="50%"></circle><circle r="144" cx="100%" cy="50%"></circle><circle r="96" cx="100%" cy="50%"></circle><circle r="48" cx="100%" cy="50%"></circle></g>
	</symbol>
	<symbol id="backgroundThree" class="background-svg" viewBox="0 0 800 800" opacity="0.64">
		<defs><linearGradient x1="50%" y1="0%" x2="50%" y2="100%" id="rrreflection-grad"><stop stop-color="hsl(184, 74%, 44%)" stop-opacity="1" offset="45%"></stop><stop stop-color="hsl(332, 87%, 70%)" stop-opacity="1" offset="100%"></stop></linearGradient><linearGradient x1="50%" y1="0%" x2="50%" y2="100%" id="rrreflection-grad-2"><stop stop-color="hsl(332, 87%, 70%)" stop-opacity="1" offset="0%"></stop><stop stop-color="hsl(184, 74%, 44%)" stop-opacity="1" offset="45%"></stop></linearGradient><linearGradient gradientTransform="rotate(270)" x1="50%" y1="0%" x2="50%" y2="100%" id="rrreflection-grad-3"><stop stop-color="hsl(184, 74%, 44%)" stop-opacity="1" offset="45%"></stop><stop stop-color="hsl(332, 87%, 70%)" stop-opacity="1" offset="100%"></stop></linearGradient><linearGradient gradientTransform="rotate(270)" x1="50%" y1="0%" x2="50%" y2="100%" id="rrreflection-grad-4"><stop stop-color="hsl(332, 87%, 70%)" stop-opacity="1" offset="0%"></stop><stop stop-color="hsl(184, 74%, 44%)" stop-opacity="1" offset="45%"></stop></linearGradient></defs><g stroke-width="2.5" stroke="url(#rrreflection-grad)" fill="none"><circle r="1968" cx="50%" cy="0"></circle><circle r="1906.5" cx="50%" cy="0"></circle><circle r="1845" cx="50%" cy="0"></circle><circle r="1783.5" cx="50%" cy="0"></circle><circle r="1722" cx="50%" cy="0"></circle><circle r="1660.5" cx="50%" cy="0"></circle><circle r="1599" cx="50%" cy="0"></circle><circle r="1537.5" cx="50%" cy="0"></circle><circle r="1476" cx="50%" cy="0"></circle><circle r="1414.5" cx="50%" cy="0"></circle><circle r="1353" cx="50%" cy="0"></circle><circle r="1291.5" cx="50%" cy="0"></circle><circle r="1230" cx="50%" cy="0"></circle><circle r="1168.5" cx="50%" cy="0"></circle><circle r="1107" cx="50%" cy="0"></circle><circle r="1045.5" cx="50%" cy="0"></circle><circle r="984" cx="50%" cy="0"></circle><circle r="922.5" cx="50%" cy="0"></circle><circle r="861" cx="50%" cy="0"></circle><circle r="799.5" cx="50%" cy="0"></circle><circle r="738" cx="50%" cy="0"></circle><circle r="676.5" cx="50%" cy="0"></circle><circle r="615" cx="50%" cy="0"></circle><circle r="553.5" cx="50%" cy="0"></circle><circle r="492" cx="50%" cy="0"></circle><circle r="430.5" cx="50%" cy="0"></circle><circle r="369" cx="50%" cy="0"></circle><circle r="307.5" cx="50%" cy="0"></circle><circle r="246" cx="50%" cy="0"></circle><circle r="184.5" cx="50%" cy="0"></circle><circle r="123" cx="50%" cy="0"></circle><circle r="61.5" cx="50%" cy="0"></circle></g><g stroke-width="2.5" stroke="url(#rrreflection-grad-2)" fill="none"><circle r="1968" cx="50%" cy="100%"></circle><circle r="1906.5" cx="50%" cy="100%"></circle><circle r="1845" cx="50%" cy="100%"></circle><circle r="1783.5" cx="50%" cy="100%"></circle><circle r="1722" cx="50%" cy="100%"></circle><circle r="1660.5" cx="50%" cy="100%"></circle><circle r="1599" cx="50%" cy="100%"></circle><circle r="1537.5" cx="50%" cy="100%"></circle><circle r="1476" cx="50%" cy="100%"></circle><circle r="1414.5" cx="50%" cy="100%"></circle><circle r="1353" cx="50%" cy="100%"></circle><circle r="1291.5" cx="50%" cy="100%"></circle><circle r="1230" cx="50%" cy="100%"></circle><circle r="1168.5" cx="50%" cy="100%"></circle><circle r="1107" cx="50%" cy="100%"></circle><circle r="1045.5" cx="50%" cy="100%"></circle><circle r="984" cx="50%" cy="100%"></circle><circle r="922.5" cx="50%" cy="100%"></circle><circle r="861" cx="50%" cy="100%"></circle><circle r="799.5" cx="50%" cy="100%"></circle><circle r="738" cx="50%" cy="100%"></circle><circle r="676.5" cx="50%" cy="100%"></circle><circle r="615" cx="50%" cy="100%"></circle><circle r="553.5" cx="50%" cy="100%"></circle><circle r="492" cx="50%" cy="100%"></circle><circle r="430.5" cx="50%" cy="100%"></circle><circle r="369" cx="50%" cy="100%"></circle><circle r="307.5" cx="50%" cy="100%"></circle><circle r="246" cx="50%" cy="100%"></circle><circle r="184.5" cx="50%" cy="100%"></circle><circle r="123" cx="50%" cy="100%"></circle><circle r="61.5" cx="50%" cy="100%"></circle></g><g stroke-width="2.5" stroke="url(#rrreflection-grad-3)" fill="none"><circle r="1968" cx="0" cy="50%"></circle><circle r="1906.5" cx="0" cy="50%"></circle><circle r="1845" cx="0" cy="50%"></circle><circle r="1783.5" cx="0" cy="50%"></circle><circle r="1722" cx="0" cy="50%"></circle><circle r="1660.5" cx="0" cy="50%"></circle><circle r="1599" cx="0" cy="50%"></circle><circle r="1537.5" cx="0" cy="50%"></circle><circle r="1476" cx="0" cy="50%"></circle><circle r="1414.5" cx="0" cy="50%"></circle><circle r="1353" cx="0" cy="50%"></circle><circle r="1291.5" cx="0" cy="50%"></circle><circle r="1230" cx="0" cy="50%"></circle><circle r="1168.5" cx="0" cy="50%"></circle><circle r="1107" cx="0" cy="50%"></circle><circle r="1045.5" cx="0" cy="50%"></circle><circle r="984" cx="0" cy="50%"></circle><circle r="922.5" cx="0" cy="50%"></circle><circle r="861" cx="0" cy="50%"></circle><circle r="799.5" cx="0" cy="50%"></circle><circle r="738" cx="0" cy="50%"></circle><circle r="676.5" cx="0" cy="50%"></circle><circle r="615" cx="0" cy="50%"></circle><circle r="553.5" cx="0" cy="50%"></circle><circle r="492" cx="0" cy="50%"></circle><circle r="430.5" cx="0" cy="50%"></circle><circle r="369" cx="0" cy="50%"></circle><circle r="307.5" cx="0" cy="50%"></circle><circle r="246" cx="0" cy="50%"></circle><circle r="184.5" cx="0" cy="50%"></circle><circle r="123" cx="0" cy="50%"></circle><circle r="61.5" cx="0" cy="50%"></circle></g><g stroke-width="2.5" stroke="url(#rrreflection-grad-4)" fill="none"><circle r="1968" cx="100%" cy="50%"></circle><circle r="1906.5" cx="100%" cy="50%"></circle><circle r="1845" cx="100%" cy="50%"></circle><circle r="1783.5" cx="100%" cy="50%"></circle><circle r="1722" cx="100%" cy="50%"></circle><circle r="1660.5" cx="100%" cy="50%"></circle><circle r="1599" cx="100%" cy="50%"></circle><circle r="1537.5" cx="100%" cy="50%"></circle><circle r="1476" cx="100%" cy="50%"></circle><circle r="1414.5" cx="100%" cy="50%"></circle><circle r="1353" cx="100%" cy="50%"></circle><circle r="1291.5" cx="100%" cy="50%"></circle><circle r="1230" cx="100%" cy="50%"></circle><circle r="1168.5" cx="100%" cy="50%"></circle><circle r="1107" cx="100%" cy="50%"></circle><circle r="1045.5" cx="100%" cy="50%"></circle><circle r="984" cx="100%" cy="50%"></circle><circle r="922.5" cx="100%" cy="50%"></circle><circle r="861" cx="100%" cy="50%"></circle><circle r="799.5" cx="100%" cy="50%"></circle><circle r="738" cx="100%" cy="50%"></circle><circle r="676.5" cx="100%" cy="50%"></circle><circle r="615" cx="100%" cy="50%"></circle><circle r="553.5" cx="100%" cy="50%"></circle><circle r="492" cx="100%" cy="50%"></circle><circle r="430.5" cx="100%" cy="50%"></circle><circle r="369" cx="100%" cy="50%"></circle><circle r="307.5" cx="100%" cy="50%"></circle><circle r="246" cx="100%" cy="50%"></circle><circle r="184.5" cx="100%" cy="50%"></circle><circle r="123" cx="100%" cy="50%"></circle><circle r="61.5" cx="100%" cy="50%"></circle></g>
	</symbol>
	<symbol id="backgroundFour" class="background-svg" viewBox="0 0 800 800" opacity="0.64">
		<defs><linearGradient x1="50%" y1="0%" x2="50%" y2="100%" id="rrreflection-grad"><stop stop-color="hsl(184, 74%, 44%)" stop-opacity="1" offset="45%"></stop><stop stop-color="hsl(332, 87%, 70%)" stop-opacity="1" offset="100%"></stop></linearGradient><linearGradient x1="50%" y1="0%" x2="50%" y2="100%" id="rrreflection-grad-2"><stop stop-color="hsl(332, 87%, 70%)" stop-opacity="1" offset="0%"></stop><stop stop-color="hsl(184, 74%, 44%)" stop-opacity="1" offset="45%"></stop></linearGradient><linearGradient gradientTransform="rotate(270)" x1="50%" y1="0%" x2="50%" y2="100%" id="rrreflection-grad-3"><stop stop-color="hsl(184, 74%, 44%)" stop-opacity="1" offset="45%"></stop><stop stop-color="hsl(332, 87%, 70%)" stop-opacity="1" offset="100%"></stop></linearGradient><linearGradient gradientTransform="rotate(270)" x1="50%" y1="0%" x2="50%" y2="100%" id="rrreflection-grad-4"><stop stop-color="hsl(332, 87%, 70%)" stop-opacity="1" offset="0%"></stop><stop stop-color="hsl(184, 74%, 44%)" stop-opacity="1" offset="45%"></stop></linearGradient></defs><g stroke-width="2.5" stroke="url(#rrreflection-grad)" fill="none"><circle r="3056" cx="50%" cy="0"></circle><circle r="2960.5" cx="50%" cy="0"></circle><circle r="2865" cx="50%" cy="0"></circle><circle r="2769.5" cx="50%" cy="0"></circle><circle r="2674" cx="50%" cy="0"></circle><circle r="2578.5" cx="50%" cy="0"></circle><circle r="2483" cx="50%" cy="0"></circle><circle r="2387.5" cx="50%" cy="0"></circle><circle r="2292" cx="50%" cy="0"></circle><circle r="2196.5" cx="50%" cy="0"></circle><circle r="2101" cx="50%" cy="0"></circle><circle r="2005.5" cx="50%" cy="0"></circle><circle r="1910" cx="50%" cy="0"></circle><circle r="1814.5" cx="50%" cy="0"></circle><circle r="1719" cx="50%" cy="0"></circle><circle r="1623.5" cx="50%" cy="0"></circle><circle r="1528" cx="50%" cy="0"></circle><circle r="1432.5" cx="50%" cy="0"></circle><circle r="1337" cx="50%" cy="0"></circle><circle r="1241.5" cx="50%" cy="0"></circle><circle r="1146" cx="50%" cy="0"></circle><circle r="1050.5" cx="50%" cy="0"></circle><circle r="955" cx="50%" cy="0"></circle><circle r="859.5" cx="50%" cy="0"></circle><circle r="764" cx="50%" cy="0"></circle><circle r="668.5" cx="50%" cy="0"></circle><circle r="573" cx="50%" cy="0"></circle><circle r="477.5" cx="50%" cy="0"></circle><circle r="382" cx="50%" cy="0"></circle><circle r="286.5" cx="50%" cy="0"></circle><circle r="191" cx="50%" cy="0"></circle><circle r="95.5" cx="50%" cy="0"></circle></g><g stroke-width="2.5" stroke="url(#rrreflection-grad-2)" fill="none"><circle r="3056" cx="50%" cy="100%"></circle><circle r="2960.5" cx="50%" cy="100%"></circle><circle r="2865" cx="50%" cy="100%"></circle><circle r="2769.5" cx="50%" cy="100%"></circle><circle r="2674" cx="50%" cy="100%"></circle><circle r="2578.5" cx="50%" cy="100%"></circle><circle r="2483" cx="50%" cy="100%"></circle><circle r="2387.5" cx="50%" cy="100%"></circle><circle r="2292" cx="50%" cy="100%"></circle><circle r="2196.5" cx="50%" cy="100%"></circle><circle r="2101" cx="50%" cy="100%"></circle><circle r="2005.5" cx="50%" cy="100%"></circle><circle r="1910" cx="50%" cy="100%"></circle><circle r="1814.5" cx="50%" cy="100%"></circle><circle r="1719" cx="50%" cy="100%"></circle><circle r="1623.5" cx="50%" cy="100%"></circle><circle r="1528" cx="50%" cy="100%"></circle><circle r="1432.5" cx="50%" cy="100%"></circle><circle r="1337" cx="50%" cy="100%"></circle><circle r="1241.5" cx="50%" cy="100%"></circle><circle r="1146" cx="50%" cy="100%"></circle><circle r="1050.5" cx="50%" cy="100%"></circle><circle r="955" cx="50%" cy="100%"></circle><circle r="859.5" cx="50%" cy="100%"></circle><circle r="764" cx="50%" cy="100%"></circle><circle r="668.5" cx="50%" cy="100%"></circle><circle r="573" cx="50%" cy="100%"></circle><circle r="477.5" cx="50%" cy="100%"></circle><circle r="382" cx="50%" cy="100%"></circle><circle r="286.5" cx="50%" cy="100%"></circle><circle r="191" cx="50%" cy="100%"></circle><circle r="95.5" cx="50%" cy="100%"></circle></g><g stroke-width="2.5" stroke="url(#rrreflection-grad-3)" fill="none"><circle r="3056" cx="0" cy="50%"></circle><circle r="2960.5" cx="0" cy="50%"></circle><circle r="2865" cx="0" cy="50%"></circle><circle r="2769.5" cx="0" cy="50%"></circle><circle r="2674" cx="0" cy="50%"></circle><circle r="2578.5" cx="0" cy="50%"></circle><circle r="2483" cx="0" cy="50%"></circle><circle r="2387.5" cx="0" cy="50%"></circle><circle r="2292" cx="0" cy="50%"></circle><circle r="2196.5" cx="0" cy="50%"></circle><circle r="2101" cx="0" cy="50%"></circle><circle r="2005.5" cx="0" cy="50%"></circle><circle r="1910" cx="0" cy="50%"></circle><circle r="1814.5" cx="0" cy="50%"></circle><circle r="1719" cx="0" cy="50%"></circle><circle r="1623.5" cx="0" cy="50%"></circle><circle r="1528" cx="0" cy="50%"></circle><circle r="1432.5" cx="0" cy="50%"></circle><circle r="1337" cx="0" cy="50%"></circle><circle r="1241.5" cx="0" cy="50%"></circle><circle r="1146" cx="0" cy="50%"></circle><circle r="1050.5" cx="0" cy="50%"></circle><circle r="955" cx="0" cy="50%"></circle><circle r="859.5" cx="0" cy="50%"></circle><circle r="764" cx="0" cy="50%"></circle><circle r="668.5" cx="0" cy="50%"></circle><circle r="573" cx="0" cy="50%"></circle><circle r="477.5" cx="0" cy="50%"></circle><circle r="382" cx="0" cy="50%"></circle><circle r="286.5" cx="0" cy="50%"></circle><circle r="191" cx="0" cy="50%"></circle><circle r="95.5" cx="0" cy="50%"></circle></g><g stroke-width="2.5" stroke="url(#rrreflection-grad-4)" fill="none"><circle r="3056" cx="100%" cy="50%"></circle><circle r="2960.5" cx="100%" cy="50%"></circle><circle r="2865" cx="100%" cy="50%"></circle><circle r="2769.5" cx="100%" cy="50%"></circle><circle r="2674" cx="100%" cy="50%"></circle><circle r="2578.5" cx="100%" cy="50%"></circle><circle r="2483" cx="100%" cy="50%"></circle><circle r="2387.5" cx="100%" cy="50%"></circle><circle r="2292" cx="100%" cy="50%"></circle><circle r="2196.5" cx="100%" cy="50%"></circle><circle r="2101" cx="100%" cy="50%"></circle><circle r="2005.5" cx="100%" cy="50%"></circle><circle r="1910" cx="100%" cy="50%"></circle><circle r="1814.5" cx="100%" cy="50%"></circle><circle r="1719" cx="100%" cy="50%"></circle><circle r="1623.5" cx="100%" cy="50%"></circle><circle r="1528" cx="100%" cy="50%"></circle><circle r="1432.5" cx="100%" cy="50%"></circle><circle r="1337" cx="100%" cy="50%"></circle><circle r="1241.5" cx="100%" cy="50%"></circle><circle r="1146" cx="100%" cy="50%"></circle><circle r="1050.5" cx="100%" cy="50%"></circle><circle r="955" cx="100%" cy="50%"></circle><circle r="859.5" cx="100%" cy="50%"></circle><circle r="764" cx="100%" cy="50%"></circle><circle r="668.5" cx="100%" cy="50%"></circle><circle r="573" cx="100%" cy="50%"></circle><circle r="477.5" cx="100%" cy="50%"></circle><circle r="382" cx="100%" cy="50%"></circle><circle r="286.5" cx="100%" cy="50%"></circle><circle r="191" cx="100%" cy="50%"></circle><circle r="95.5" cx="100%" cy="50%"></circle></g>
	</symbol>
	<symbol id="backgroundFive" class="background-svg" viewBox="0 0 800 800" opacity="0.64">
		<defs><linearGradient x1="50%" y1="0%" x2="50%" y2="100%" id="rrreflection-grad"><stop stop-color="hsl(184, 74%, 44%)" stop-opacity="1" offset="45%"></stop><stop stop-color="hsl(332, 87%, 70%)" stop-opacity="1" offset="100%"></stop></linearGradient><linearGradient x1="50%" y1="0%" x2="50%" y2="100%" id="rrreflection-grad-2"><stop stop-color="hsl(332, 87%, 70%)" stop-opacity="1" offset="0%"></stop><stop stop-color="hsl(184, 74%, 44%)" stop-opacity="1" offset="45%"></stop></linearGradient><linearGradient gradientTransform="rotate(270)" x1="50%" y1="0%" x2="50%" y2="100%" id="rrreflection-grad-3"><stop stop-color="hsl(184, 74%, 44%)" stop-opacity="1" offset="45%"></stop><stop stop-color="hsl(332, 87%, 70%)" stop-opacity="1" offset="100%"></stop></linearGradient><linearGradient gradientTransform="rotate(270)" x1="50%" y1="0%" x2="50%" y2="100%" id="rrreflection-grad-4"><stop stop-color="hsl(332, 87%, 70%)" stop-opacity="1" offset="0%"></stop><stop stop-color="hsl(184, 74%, 44%)" stop-opacity="1" offset="45%"></stop></linearGradient></defs><g stroke-width="2.5" stroke="url(#rrreflection-grad)" fill="none"><circle r="3552" cx="50%" cy="0"></circle><circle r="3441" cx="50%" cy="0"></circle><circle r="3330" cx="50%" cy="0"></circle><circle r="3219" cx="50%" cy="0"></circle><circle r="3108" cx="50%" cy="0"></circle><circle r="2997" cx="50%" cy="0"></circle><circle r="2886" cx="50%" cy="0"></circle><circle r="2775" cx="50%" cy="0"></circle><circle r="2664" cx="50%" cy="0"></circle><circle r="2553" cx="50%" cy="0"></circle><circle r="2442" cx="50%" cy="0"></circle><circle r="2331" cx="50%" cy="0"></circle><circle r="2220" cx="50%" cy="0"></circle><circle r="2109" cx="50%" cy="0"></circle><circle r="1998" cx="50%" cy="0"></circle><circle r="1887" cx="50%" cy="0"></circle><circle r="1776" cx="50%" cy="0"></circle><circle r="1665" cx="50%" cy="0"></circle><circle r="1554" cx="50%" cy="0"></circle><circle r="1443" cx="50%" cy="0"></circle><circle r="1332" cx="50%" cy="0"></circle><circle r="1221" cx="50%" cy="0"></circle><circle r="1110" cx="50%" cy="0"></circle><circle r="999" cx="50%" cy="0"></circle><circle r="888" cx="50%" cy="0"></circle><circle r="777" cx="50%" cy="0"></circle><circle r="666" cx="50%" cy="0"></circle><circle r="555" cx="50%" cy="0"></circle><circle r="444" cx="50%" cy="0"></circle><circle r="333" cx="50%" cy="0"></circle><circle r="222" cx="50%" cy="0"></circle><circle r="111" cx="50%" cy="0"></circle></g><g stroke-width="2.5" stroke="url(#rrreflection-grad-2)" fill="none"><circle r="3552" cx="50%" cy="100%"></circle><circle r="3441" cx="50%" cy="100%"></circle><circle r="3330" cx="50%" cy="100%"></circle><circle r="3219" cx="50%" cy="100%"></circle><circle r="3108" cx="50%" cy="100%"></circle><circle r="2997" cx="50%" cy="100%"></circle><circle r="2886" cx="50%" cy="100%"></circle><circle r="2775" cx="50%" cy="100%"></circle><circle r="2664" cx="50%" cy="100%"></circle><circle r="2553" cx="50%" cy="100%"></circle><circle r="2442" cx="50%" cy="100%"></circle><circle r="2331" cx="50%" cy="100%"></circle><circle r="2220" cx="50%" cy="100%"></circle><circle r="2109" cx="50%" cy="100%"></circle><circle r="1998" cx="50%" cy="100%"></circle><circle r="1887" cx="50%" cy="100%"></circle><circle r="1776" cx="50%" cy="100%"></circle><circle r="1665" cx="50%" cy="100%"></circle><circle r="1554" cx="50%" cy="100%"></circle><circle r="1443" cx="50%" cy="100%"></circle><circle r="1332" cx="50%" cy="100%"></circle><circle r="1221" cx="50%" cy="100%"></circle><circle r="1110" cx="50%" cy="100%"></circle><circle r="999" cx="50%" cy="100%"></circle><circle r="888" cx="50%" cy="100%"></circle><circle r="777" cx="50%" cy="100%"></circle><circle r="666" cx="50%" cy="100%"></circle><circle r="555" cx="50%" cy="100%"></circle><circle r="444" cx="50%" cy="100%"></circle><circle r="333" cx="50%" cy="100%"></circle><circle r="222" cx="50%" cy="100%"></circle><circle r="111" cx="50%" cy="100%"></circle></g><g stroke-width="2.5" stroke="url(#rrreflection-grad-3)" fill="none"><circle r="3552" cx="0" cy="50%"></circle><circle r="3441" cx="0" cy="50%"></circle><circle r="3330" cx="0" cy="50%"></circle><circle r="3219" cx="0" cy="50%"></circle><circle r="3108" cx="0" cy="50%"></circle><circle r="2997" cx="0" cy="50%"></circle><circle r="2886" cx="0" cy="50%"></circle><circle r="2775" cx="0" cy="50%"></circle><circle r="2664" cx="0" cy="50%"></circle><circle r="2553" cx="0" cy="50%"></circle><circle r="2442" cx="0" cy="50%"></circle><circle r="2331" cx="0" cy="50%"></circle><circle r="2220" cx="0" cy="50%"></circle><circle r="2109" cx="0" cy="50%"></circle><circle r="1998" cx="0" cy="50%"></circle><circle r="1887" cx="0" cy="50%"></circle><circle r="1776" cx="0" cy="50%"></circle><circle r="1665" cx="0" cy="50%"></circle><circle r="1554" cx="0" cy="50%"></circle><circle r="1443" cx="0" cy="50%"></circle><circle r="1332" cx="0" cy="50%"></circle><circle r="1221" cx="0" cy="50%"></circle><circle r="1110" cx="0" cy="50%"></circle><circle r="999" cx="0" cy="50%"></circle><circle r="888" cx="0" cy="50%"></circle><circle r="777" cx="0" cy="50%"></circle><circle r="666" cx="0" cy="50%"></circle><circle r="555" cx="0" cy="50%"></circle><circle r="444" cx="0" cy="50%"></circle><circle r="333" cx="0" cy="50%"></circle><circle r="222" cx="0" cy="50%"></circle><circle r="111" cx="0" cy="50%"></circle></g><g stroke-width="2.5" stroke="url(#rrreflection-grad-4)" fill="none"><circle r="3552" cx="100%" cy="50%"></circle><circle r="3441" cx="100%" cy="50%"></circle><circle r="3330" cx="100%" cy="50%"></circle><circle r="3219" cx="100%" cy="50%"></circle><circle r="3108" cx="100%" cy="50%"></circle><circle r="2997" cx="100%" cy="50%"></circle><circle r="2886" cx="100%" cy="50%"></circle><circle r="2775" cx="100%" cy="50%"></circle><circle r="2664" cx="100%" cy="50%"></circle><circle r="2553" cx="100%" cy="50%"></circle><circle r="2442" cx="100%" cy="50%"></circle><circle r="2331" cx="100%" cy="50%"></circle><circle r="2220" cx="100%" cy="50%"></circle><circle r="2109" cx="100%" cy="50%"></circle><circle r="1998" cx="100%" cy="50%"></circle><circle r="1887" cx="100%" cy="50%"></circle><circle r="1776" cx="100%" cy="50%"></circle><circle r="1665" cx="100%" cy="50%"></circle><circle r="1554" cx="100%" cy="50%"></circle><circle r="1443" cx="100%" cy="50%"></circle><circle r="1332" cx="100%" cy="50%"></circle><circle r="1221" cx="100%" cy="50%"></circle><circle r="1110" cx="100%" cy="50%"></circle><circle r="999" cx="100%" cy="50%"></circle><circle r="888" cx="100%" cy="50%"></circle><circle r="777" cx="100%" cy="50%"></circle><circle r="666" cx="100%" cy="50%"></circle><circle r="555" cx="100%" cy="50%"></circle><circle r="444" cx="100%" cy="50%"></circle><circle r="333" cx="100%" cy="50%"></circle><circle r="222" cx="100%" cy="50%"></circle><circle r="111" cx="100%" cy="50%"></circle></g>
	</symbol>
</svg>