<svg class="background-svg" xmlns="http://www.w3.org/2000/svg" viewBox="0 0 800 800" opacity=".64"><defs><linearGradient x1="50%" y1="0%" x2="50%" y2="100%" id="a"><stop stop-color="hsl(184, 74%, 44%)" offset="45%"/><stop stop-color="hsl(332, 87%, 70%)" offset="100%"/></linearGradient><linearGradient x1="50%" y1="0%" x2="50%" y2="100%" id="b"><stop stop-color="hsl(332, 87%, 70%)" offset="0%"/><stop stop-color="hsl(184, 74%, 44%)" offset="45%"/></linearGradient><linearGradient gradientTransform="rotate(270)" x1="50%" y1="0%" x2="50%" y2="100%" id="c"><stop stop-color="hsl(184, 74%, 44%)" offset="45%"/><stop stop-color="hsl(332, 87%, 70%)" offset="100%"/></linearGradient><linearGradient gradientTransform="rotate(270)" x1="50%" y1="0%" x2="50%" y2="100%" id="d"><stop stop-color="hsl(332, 87%, 70%)" offset="0%"/><stop stop-color="hsl(184, 74%, 44%)" offset="45%"/></linearGradient></defs><g stroke-width="2.5" stroke="url(#a)" fill="none"><circle r="1536" cx="50%"/><circle r="1488" cx="50%"/><circle r="1440" cx="50%"/><circle r="1392" cx="50%"/><circle r="1344" cx="50%"/><circle r="1296" cx="50%"/><circle r="1248" cx="50%"/><circle r="1200" cx="50%"/><circle r="1152" cx="50%"/><circle r="1104" cx="50%"/><circle r="1056" cx="50%"/><circle r="1008" cx="50%"/><circle r="960" cx="50%"/><circle r="912" cx="50%"/><circle r="864" cx="50%"/><circle r="816" cx="50%"/><circle r="768" cx="50%"/><circle r="720" cx="50%"/><circle r="672" cx="50%"/><circle r="624" cx="50%"/><circle r="576" cx="50%"/><circle r="528" cx="50%"/><circle r="480" cx="50%"/><circle r="432" cx="50%"/><circle r="384" cx="50%"/><circle r="336" cx="50%"/><circle r="288" cx="50%"/><circle r="240" cx="50%"/><circle r="192" cx="50%"/><circle r="144" cx="50%"/><circle r="96" cx="50%"/><circle r="48" cx="50%"/></g><g stroke-width="2.5" stroke="url(#b)" fill="none"><circle r="1536" cx="50%" cy="100%"/><circle r="1488" cx="50%" cy="100%"/><circle r="1440" cx="50%" cy="100%"/><circle r="1392" cx="50%" cy="100%"/><circle r="1344" cx="50%" cy="100%"/><circle r="1296" cx="50%" cy="100%"/><circle r="1248" cx="50%" cy="100%"/><circle r="1200" cx="50%" cy="100%"/><circle r="1152" cx="50%" cy="100%"/><circle r="1104" cx="50%" cy="100%"/><circle r="1056" cx="50%" cy="100%"/><circle r="1008" cx="50%" cy="100%"/><circle r="960" cx="50%" cy="100%"/><circle r="912" cx="50%" cy="100%"/><circle r="864" cx="50%" cy="100%"/><circle r="816" cx="50%" cy="100%"/><circle r="768" cx="50%" cy="100%"/><circle r="720" cx="50%" cy="100%"/><circle r="672" cx="50%" cy="100%"/><circle r="624" cx="50%" cy="100%"/><circle r="576" cx="50%" cy="100%"/><circle r="528" cx="50%" cy="100%"/><circle r="480" cx="50%" cy="100%"/><circle r="432" cx="50%" cy="100%"/><circle r="384" cx="50%" cy="100%"/><circle r="336" cx="50%" cy="100%"/><circle r="288" cx="50%" cy="100%"/><circle r="240" cx="50%" cy="100%"/><circle r="192" cx="50%" cy="100%"/><circle r="144" cx="50%" cy="100%"/><circle r="96" cx="50%" cy="100%"/><circle r="48" cx="50%" cy="100%"/></g><g stroke-width="2.5" stroke="url(#c)" fill="none"><circle r="1536" cy="50%"/><circle r="1488" cy="50%"/><circle r="1440" cy="50%"/><circle r="1392" cy="50%"/><circle r="1344" cy="50%"/><circle r="1296" cy="50%"/><circle r="1248" cy="50%"/><circle r="1200" cy="50%"/><circle r="1152" cy="50%"/><circle r="1104" cy="50%"/><circle r="1056" cy="50%"/><circle r="1008" cy="50%"/><circle r="960" cy="50%"/><circle r="912" cy="50%"/><circle r="864" cy="50%"/><circle r="816" cy="50%"/><circle r="768" cy="50%"/><circle r="720" cy="50%"/><circle r="672" cy="50%"/><circle r="624" cy="50%"/><circle r="576" cy="50%"/><circle r="528" cy="50%"/><circle r="480" cy="50%"/><circle r="432" cy="50%"/><circle r="384" cy="50%"/><circle r="336" cy="50%"/><circle r="288" cy="50%"/><circle r="240" cy="50%"/><circle r="192" cy="50%"/><circle r="144" cy="50%"/><circle r="96" cy="50%"/><circle r="48" cy="50%"/></g><g stroke-width="2.5" stroke="url(#d)" fill="none"><circle r="1536" cx="100%" cy="50%"/><circle r="1488" cx="100%" cy="50%"/><circle r="1440" cx="100%" cy="50%"/><circle r="1392" cx="100%" cy="50%"/><circle r="1344" cx="100%" cy="50%"/><circle r="1296" cx="100%" cy="50%"/><circle r="1248" cx="100%" cy="50%"/><circle r="1200" cx="100%" cy="50%"/><circle r="1152" cx="100%" cy="50%"/><circle r="1104" cx="100%" cy="50%"/><circle r="1056" cx="100%" cy="50%"/><circle r="1008" cx="100%" cy="50%"/><circle r="960" cx="100%" cy="50%"/><circle r="912" cx="100%" cy="50%"/><circle r="864" cx="100%" cy="50%"/><circle r="816" cx="100%" cy="50%"/><circle r="768" cx="100%" cy="50%"/><circle r="720" cx="100%" cy="50%"/><circle r="672" cx="100%" cy="50%"/><circle r="624" cx="100%" cy="50%"/><circle r="576" cx="100%" cy="50%"/><circle r="528" cx="100%" cy="50%"/><circle r="480" cx="100%" cy="50%"/><circle r="432" cx="100%" cy="50%"/><circle r="384" cx="100%" cy="50%"/><circle r="336" cx="100%" cy="50%"/><circle r="288" cx="100%" cy="50%"/><circle r="240" cx="100%" cy="50%"/><circle r="192" cx="100%" cy="50%"/><circle r="144" cx="100%" cy="50%"/><circle r="96" cx="100%" cy="50%"/><circle r="48" cx="100%" cy="50%"/></g></svg>