<svg id="backgroundOne" class="background-svg" xmlns="http://www.w3.org/2000/svg" version="1.1" xmlns:xlink="http://www.w3.org/1999/xlink" xmlns:svgjs="http://svgjs.dev/svgjs" viewBox="0 0 800 800" opacity="0.64"><defs><linearGradient x1="50%" y1="0%" x2="50%" y2="100%" id="rrreflection-grad"><stop stop-color="hsl(184, 74%, 44%)" stop-opacity="1" offset="45%"></stop><stop stop-color="hsl(332, 87%, 70%)" stop-opacity="1" offset="100%"></stop></linearGradient><linearGradient x1="50%" y1="0%" x2="50%" y2="100%" id="rrreflection-grad-2"><stop stop-color="hsl(332, 87%, 70%)" stop-opacity="1" offset="0%"></stop><stop stop-color="hsl(184, 74%, 44%)" stop-opacity="1" offset="45%"></stop></linearGradient><linearGradient gradientTransform="rotate(270)" x1="50%" y1="0%" x2="50%" y2="100%" id="rrreflection-grad-3"><stop stop-color="hsl(184, 74%, 44%)" stop-opacity="1" offset="45%"></stop><stop stop-color="hsl(332, 87%, 70%)" stop-opacity="1" offset="100%"></stop></linearGradient><linearGradient gradientTransform="rotate(270)" x1="50%" y1="0%" x2="50%" y2="100%" id="rrreflection-grad-4"><stop stop-color="hsl(332, 87%, 70%)" stop-opacity="1" offset="0%"></stop><stop stop-color="hsl(184, 74%, 44%)" stop-opacity="1" offset="45%"></stop></linearGradient></defs><g stroke-width="2.5" stroke="url(#rrreflection-grad)" fill="none"><circle r="576" cx="50%" cy="0"></circle><circle r="558" cx="50%" cy="0"></circle><circle r="540" cx="50%" cy="0"></circle><circle r="522" cx="50%" cy="0"></circle><circle r="504" cx="50%" cy="0"></circle><circle r="486" cx="50%" cy="0"></circle><circle r="468" cx="50%" cy="0"></circle><circle r="450" cx="50%" cy="0"></circle><circle r="432" cx="50%" cy="0"></circle><circle r="414" cx="50%" cy="0"></circle><circle r="396" cx="50%" cy="0"></circle><circle r="378" cx="50%" cy="0"></circle><circle r="360" cx="50%" cy="0"></circle><circle r="342" cx="50%" cy="0"></circle><circle r="324" cx="50%" cy="0"></circle><circle r="306" cx="50%" cy="0"></circle><circle r="288" cx="50%" cy="0"></circle><circle r="270" cx="50%" cy="0"></circle><circle r="252" cx="50%" cy="0"></circle><circle r="234" cx="50%" cy="0"></circle><circle r="216" cx="50%" cy="0"></circle><circle r="198" cx="50%" cy="0"></circle><circle r="180" cx="50%" cy="0"></circle><circle r="162" cx="50%" cy="0"></circle><circle r="144" cx="50%" cy="0"></circle><circle r="126" cx="50%" cy="0"></circle><circle r="108" cx="50%" cy="0"></circle><circle r="90" cx="50%" cy="0"></circle><circle r="72" cx="50%" cy="0"></circle><circle r="54" cx="50%" cy="0"></circle><circle r="36" cx="50%" cy="0"></circle><circle r="18" cx="50%" cy="0"></circle></g><g stroke-width="2.5" stroke="url(#rrreflection-grad-2)" fill="none"><circle r="576" cx="50%" cy="100%"></circle><circle r="558" cx="50%" cy="100%"></circle><circle r="540" cx="50%" cy="100%"></circle><circle r="522" cx="50%" cy="100%"></circle><circle r="504" cx="50%" cy="100%"></circle><circle r="486" cx="50%" cy="100%"></circle><circle r="468" cx="50%" cy="100%"></circle><circle r="450" cx="50%" cy="100%"></circle><circle r="432" cx="50%" cy="100%"></circle><circle r="414" cx="50%" cy="100%"></circle><circle r="396" cx="50%" cy="100%"></circle><circle r="378" cx="50%" cy="100%"></circle><circle r="360" cx="50%" cy="100%"></circle><circle r="342" cx="50%" cy="100%"></circle><circle r="324" cx="50%" cy="100%"></circle><circle r="306" cx="50%" cy="100%"></circle><circle r="288" cx="50%" cy="100%"></circle><circle r="270" cx="50%" cy="100%"></circle><circle r="252" cx="50%" cy="100%"></circle><circle r="234" cx="50%" cy="100%"></circle><circle r="216" cx="50%" cy="100%"></circle><circle r="198" cx="50%" cy="100%"></circle><circle r="180" cx="50%" cy="100%"></circle><circle r="162" cx="50%" cy="100%"></circle><circle r="144" cx="50%" cy="100%"></circle><circle r="126" cx="50%" cy="100%"></circle><circle r="108" cx="50%" cy="100%"></circle><circle r="90" cx="50%" cy="100%"></circle><circle r="72" cx="50%" cy="100%"></circle><circle r="54" cx="50%" cy="100%"></circle><circle r="36" cx="50%" cy="100%"></circle><circle r="18" cx="50%" cy="100%"></circle></g><g stroke-width="2.5" stroke="url(#rrreflection-grad-3)" fill="none"><circle r="576" cx="0" cy="50%"></circle><circle r="558" cx="0" cy="50%"></circle><circle r="540" cx="0" cy="50%"></circle><circle r="522" cx="0" cy="50%"></circle><circle r="504" cx="0" cy="50%"></circle><circle r="486" cx="0" cy="50%"></circle><circle r="468" cx="0" cy="50%"></circle><circle r="450" cx="0" cy="50%"></circle><circle r="432" cx="0" cy="50%"></circle><circle r="414" cx="0" cy="50%"></circle><circle r="396" cx="0" cy="50%"></circle><circle r="378" cx="0" cy="50%"></circle><circle r="360" cx="0" cy="50%"></circle><circle r="342" cx="0" cy="50%"></circle><circle r="324" cx="0" cy="50%"></circle><circle r="306" cx="0" cy="50%"></circle><circle r="288" cx="0" cy="50%"></circle><circle r="270" cx="0" cy="50%"></circle><circle r="252" cx="0" cy="50%"></circle><circle r="234" cx="0" cy="50%"></circle><circle r="216" cx="0" cy="50%"></circle><circle r="198" cx="0" cy="50%"></circle><circle r="180" cx="0" cy="50%"></circle><circle r="162" cx="0" cy="50%"></circle><circle r="144" cx="0" cy="50%"></circle><circle r="126" cx="0" cy="50%"></circle><circle r="108" cx="0" cy="50%"></circle><circle r="90" cx="0" cy="50%"></circle><circle r="72" cx="0" cy="50%"></circle><circle r="54" cx="0" cy="50%"></circle><circle r="36" cx="0" cy="50%"></circle><circle r="18" cx="0" cy="50%"></circle></g><g stroke-width="2.5" stroke="url(#rrreflection-grad-4)" fill="none"><circle r="576" cx="100%" cy="50%"></circle><circle r="558" cx="100%" cy="50%"></circle><circle r="540" cx="100%" cy="50%"></circle><circle r="522" cx="100%" cy="50%"></circle><circle r="504" cx="100%" cy="50%"></circle><circle r="486" cx="100%" cy="50%"></circle><circle r="468" cx="100%" cy="50%"></circle><circle r="450" cx="100%" cy="50%"></circle><circle r="432" cx="100%" cy="50%"></circle><circle r="414" cx="100%" cy="50%"></circle><circle r="396" cx="100%" cy="50%"></circle><circle r="378" cx="100%" cy="50%"></circle><circle r="360" cx="100%" cy="50%"></circle><circle r="342" cx="100%" cy="50%"></circle><circle r="324" cx="100%" cy="50%"></circle><circle r="306" cx="100%" cy="50%"></circle><circle r="288" cx="100%" cy="50%"></circle><circle r="270" cx="100%" cy="50%"></circle><circle r="252" cx="100%" cy="50%"></circle><circle r="234" cx="100%" cy="50%"></circle><circle r="216" cx="100%" cy="50%"></circle><circle r="198" cx="100%" cy="50%"></circle><circle r="180" cx="100%" cy="50%"></circle><circle r="162" cx="100%" cy="50%"></circle><circle r="144" cx="100%" cy="50%"></circle><circle r="126" cx="100%" cy="50%"></circle><circle r="108" cx="100%" cy="50%"></circle><circle r="90" cx="100%" cy="50%"></circle><circle r="72" cx="100%" cy="50%"></circle><circle r="54" cx="100%" cy="50%"></circle><circle r="36" cx="100%" cy="50%"></circle><circle r="18" cx="100%" cy="50%"></circle></g>
</svg>
