<svg id="backgroundFive" xmlns="http://www.w3.org/2000/svg" version="1.1" xmlns:xlink="http://www.w3.org/1999/xlink" xmlns:svgjs="http://svgjs.dev/svgjs" viewBox="0 0 800 800" opacity="0.64"><defs><linearGradient x1="50%" y1="0%" x2="50%" y2="100%" id="rrreflection-grad"><stop stop-color="hsl(184, 74%, 44%)" stop-opacity="1" offset="45%"></stop><stop stop-color="hsl(332, 87%, 70%)" stop-opacity="1" offset="100%"></stop></linearGradient><linearGradient x1="50%" y1="0%" x2="50%" y2="100%" id="rrreflection-grad-2"><stop stop-color="hsl(332, 87%, 70%)" stop-opacity="1" offset="0%"></stop><stop stop-color="hsl(184, 74%, 44%)" stop-opacity="1" offset="45%"></stop></linearGradient><linearGradient gradientTransform="rotate(270)" x1="50%" y1="0%" x2="50%" y2="100%" id="rrreflection-grad-3"><stop stop-color="hsl(184, 74%, 44%)" stop-opacity="1" offset="45%"></stop><stop stop-color="hsl(332, 87%, 70%)" stop-opacity="1" offset="100%"></stop></linearGradient><linearGradient gradientTransform="rotate(270)" x1="50%" y1="0%" x2="50%" y2="100%" id="rrreflection-grad-4"><stop stop-color="hsl(332, 87%, 70%)" stop-opacity="1" offset="0%"></stop><stop stop-color="hsl(184, 74%, 44%)" stop-opacity="1" offset="45%"></stop></linearGradient></defs><g stroke-width="2.5" stroke="url(#rrreflection-grad)" fill="none"><circle r="3552" cx="50%" cy="0"></circle><circle r="3441" cx="50%" cy="0"></circle><circle r="3330" cx="50%" cy="0"></circle><circle r="3219" cx="50%" cy="0"></circle><circle r="3108" cx="50%" cy="0"></circle><circle r="2997" cx="50%" cy="0"></circle><circle r="2886" cx="50%" cy="0"></circle><circle r="2775" cx="50%" cy="0"></circle><circle r="2664" cx="50%" cy="0"></circle><circle r="2553" cx="50%" cy="0"></circle><circle r="2442" cx="50%" cy="0"></circle><circle r="2331" cx="50%" cy="0"></circle><circle r="2220" cx="50%" cy="0"></circle><circle r="2109" cx="50%" cy="0"></circle><circle r="1998" cx="50%" cy="0"></circle><circle r="1887" cx="50%" cy="0"></circle><circle r="1776" cx="50%" cy="0"></circle><circle r="1665" cx="50%" cy="0"></circle><circle r="1554" cx="50%" cy="0"></circle><circle r="1443" cx="50%" cy="0"></circle><circle r="1332" cx="50%" cy="0"></circle><circle r="1221" cx="50%" cy="0"></circle><circle r="1110" cx="50%" cy="0"></circle><circle r="999" cx="50%" cy="0"></circle><circle r="888" cx="50%" cy="0"></circle><circle r="777" cx="50%" cy="0"></circle><circle r="666" cx="50%" cy="0"></circle><circle r="555" cx="50%" cy="0"></circle><circle r="444" cx="50%" cy="0"></circle><circle r="333" cx="50%" cy="0"></circle><circle r="222" cx="50%" cy="0"></circle><circle r="111" cx="50%" cy="0"></circle></g><g stroke-width="2.5" stroke="url(#rrreflection-grad-2)" fill="none"><circle r="3552" cx="50%" cy="100%"></circle><circle r="3441" cx="50%" cy="100%"></circle><circle r="3330" cx="50%" cy="100%"></circle><circle r="3219" cx="50%" cy="100%"></circle><circle r="3108" cx="50%" cy="100%"></circle><circle r="2997" cx="50%" cy="100%"></circle><circle r="2886" cx="50%" cy="100%"></circle><circle r="2775" cx="50%" cy="100%"></circle><circle r="2664" cx="50%" cy="100%"></circle><circle r="2553" cx="50%" cy="100%"></circle><circle r="2442" cx="50%" cy="100%"></circle><circle r="2331" cx="50%" cy="100%"></circle><circle r="2220" cx="50%" cy="100%"></circle><circle r="2109" cx="50%" cy="100%"></circle><circle r="1998" cx="50%" cy="100%"></circle><circle r="1887" cx="50%" cy="100%"></circle><circle r="1776" cx="50%" cy="100%"></circle><circle r="1665" cx="50%" cy="100%"></circle><circle r="1554" cx="50%" cy="100%"></circle><circle r="1443" cx="50%" cy="100%"></circle><circle r="1332" cx="50%" cy="100%"></circle><circle r="1221" cx="50%" cy="100%"></circle><circle r="1110" cx="50%" cy="100%"></circle><circle r="999" cx="50%" cy="100%"></circle><circle r="888" cx="50%" cy="100%"></circle><circle r="777" cx="50%" cy="100%"></circle><circle r="666" cx="50%" cy="100%"></circle><circle r="555" cx="50%" cy="100%"></circle><circle r="444" cx="50%" cy="100%"></circle><circle r="333" cx="50%" cy="100%"></circle><circle r="222" cx="50%" cy="100%"></circle><circle r="111" cx="50%" cy="100%"></circle></g><g stroke-width="2.5" stroke="url(#rrreflection-grad-3)" fill="none"><circle r="3552" cx="0" cy="50%"></circle><circle r="3441" cx="0" cy="50%"></circle><circle r="3330" cx="0" cy="50%"></circle><circle r="3219" cx="0" cy="50%"></circle><circle r="3108" cx="0" cy="50%"></circle><circle r="2997" cx="0" cy="50%"></circle><circle r="2886" cx="0" cy="50%"></circle><circle r="2775" cx="0" cy="50%"></circle><circle r="2664" cx="0" cy="50%"></circle><circle r="2553" cx="0" cy="50%"></circle><circle r="2442" cx="0" cy="50%"></circle><circle r="2331" cx="0" cy="50%"></circle><circle r="2220" cx="0" cy="50%"></circle><circle r="2109" cx="0" cy="50%"></circle><circle r="1998" cx="0" cy="50%"></circle><circle r="1887" cx="0" cy="50%"></circle><circle r="1776" cx="0" cy="50%"></circle><circle r="1665" cx="0" cy="50%"></circle><circle r="1554" cx="0" cy="50%"></circle><circle r="1443" cx="0" cy="50%"></circle><circle r="1332" cx="0" cy="50%"></circle><circle r="1221" cx="0" cy="50%"></circle><circle r="1110" cx="0" cy="50%"></circle><circle r="999" cx="0" cy="50%"></circle><circle r="888" cx="0" cy="50%"></circle><circle r="777" cx="0" cy="50%"></circle><circle r="666" cx="0" cy="50%"></circle><circle r="555" cx="0" cy="50%"></circle><circle r="444" cx="0" cy="50%"></circle><circle r="333" cx="0" cy="50%"></circle><circle r="222" cx="0" cy="50%"></circle><circle r="111" cx="0" cy="50%"></circle></g><g stroke-width="2.5" stroke="url(#rrreflection-grad-4)" fill="none"><circle r="3552" cx="100%" cy="50%"></circle><circle r="3441" cx="100%" cy="50%"></circle><circle r="3330" cx="100%" cy="50%"></circle><circle r="3219" cx="100%" cy="50%"></circle><circle r="3108" cx="100%" cy="50%"></circle><circle r="2997" cx="100%" cy="50%"></circle><circle r="2886" cx="100%" cy="50%"></circle><circle r="2775" cx="100%" cy="50%"></circle><circle r="2664" cx="100%" cy="50%"></circle><circle r="2553" cx="100%" cy="50%"></circle><circle r="2442" cx="100%" cy="50%"></circle><circle r="2331" cx="100%" cy="50%"></circle><circle r="2220" cx="100%" cy="50%"></circle><circle r="2109" cx="100%" cy="50%"></circle><circle r="1998" cx="100%" cy="50%"></circle><circle r="1887" cx="100%" cy="50%"></circle><circle r="1776" cx="100%" cy="50%"></circle><circle r="1665" cx="100%" cy="50%"></circle><circle r="1554" cx="100%" cy="50%"></circle><circle r="1443" cx="100%" cy="50%"></circle><circle r="1332" cx="100%" cy="50%"></circle><circle r="1221" cx="100%" cy="50%"></circle><circle r="1110" cx="100%" cy="50%"></circle><circle r="999" cx="100%" cy="50%"></circle><circle r="888" cx="100%" cy="50%"></circle><circle r="777" cx="100%" cy="50%"></circle><circle r="666" cx="100%" cy="50%"></circle><circle r="555" cx="100%" cy="50%"></circle><circle r="444" cx="100%" cy="50%"></circle><circle r="333" cx="100%" cy="50%"></circle><circle r="222" cx="100%" cy="50%"></circle><circle r="111" cx="100%" cy="50%"></circle></g>
</svg>
