<svg id="backgroundFour" xmlns="http://www.w3.org/2000/svg" version="1.1" xmlns:xlink="http://www.w3.org/1999/xlink" xmlns:svgjs="http://svgjs.dev/svgjs" viewBox="0 0 800 800" opacity="0.64"><defs><linearGradient x1="50%" y1="0%" x2="50%" y2="100%" id="rrreflection-grad"><stop stop-color="hsl(184, 74%, 44%)" stop-opacity="1" offset="45%"></stop><stop stop-color="hsl(332, 87%, 70%)" stop-opacity="1" offset="100%"></stop></linearGradient><linearGradient x1="50%" y1="0%" x2="50%" y2="100%" id="rrreflection-grad-2"><stop stop-color="hsl(332, 87%, 70%)" stop-opacity="1" offset="0%"></stop><stop stop-color="hsl(184, 74%, 44%)" stop-opacity="1" offset="45%"></stop></linearGradient><linearGradient gradientTransform="rotate(270)" x1="50%" y1="0%" x2="50%" y2="100%" id="rrreflection-grad-3"><stop stop-color="hsl(184, 74%, 44%)" stop-opacity="1" offset="45%"></stop><stop stop-color="hsl(332, 87%, 70%)" stop-opacity="1" offset="100%"></stop></linearGradient><linearGradient gradientTransform="rotate(270)" x1="50%" y1="0%" x2="50%" y2="100%" id="rrreflection-grad-4"><stop stop-color="hsl(332, 87%, 70%)" stop-opacity="1" offset="0%"></stop><stop stop-color="hsl(184, 74%, 44%)" stop-opacity="1" offset="45%"></stop></linearGradient></defs><g stroke-width="2.5" stroke="url(#rrreflection-grad)" fill="none"><circle r="3056" cx="50%" cy="0"></circle><circle r="2960.5" cx="50%" cy="0"></circle><circle r="2865" cx="50%" cy="0"></circle><circle r="2769.5" cx="50%" cy="0"></circle><circle r="2674" cx="50%" cy="0"></circle><circle r="2578.5" cx="50%" cy="0"></circle><circle r="2483" cx="50%" cy="0"></circle><circle r="2387.5" cx="50%" cy="0"></circle><circle r="2292" cx="50%" cy="0"></circle><circle r="2196.5" cx="50%" cy="0"></circle><circle r="2101" cx="50%" cy="0"></circle><circle r="2005.5" cx="50%" cy="0"></circle><circle r="1910" cx="50%" cy="0"></circle><circle r="1814.5" cx="50%" cy="0"></circle><circle r="1719" cx="50%" cy="0"></circle><circle r="1623.5" cx="50%" cy="0"></circle><circle r="1528" cx="50%" cy="0"></circle><circle r="1432.5" cx="50%" cy="0"></circle><circle r="1337" cx="50%" cy="0"></circle><circle r="1241.5" cx="50%" cy="0"></circle><circle r="1146" cx="50%" cy="0"></circle><circle r="1050.5" cx="50%" cy="0"></circle><circle r="955" cx="50%" cy="0"></circle><circle r="859.5" cx="50%" cy="0"></circle><circle r="764" cx="50%" cy="0"></circle><circle r="668.5" cx="50%" cy="0"></circle><circle r="573" cx="50%" cy="0"></circle><circle r="477.5" cx="50%" cy="0"></circle><circle r="382" cx="50%" cy="0"></circle><circle r="286.5" cx="50%" cy="0"></circle><circle r="191" cx="50%" cy="0"></circle><circle r="95.5" cx="50%" cy="0"></circle></g><g stroke-width="2.5" stroke="url(#rrreflection-grad-2)" fill="none"><circle r="3056" cx="50%" cy="100%"></circle><circle r="2960.5" cx="50%" cy="100%"></circle><circle r="2865" cx="50%" cy="100%"></circle><circle r="2769.5" cx="50%" cy="100%"></circle><circle r="2674" cx="50%" cy="100%"></circle><circle r="2578.5" cx="50%" cy="100%"></circle><circle r="2483" cx="50%" cy="100%"></circle><circle r="2387.5" cx="50%" cy="100%"></circle><circle r="2292" cx="50%" cy="100%"></circle><circle r="2196.5" cx="50%" cy="100%"></circle><circle r="2101" cx="50%" cy="100%"></circle><circle r="2005.5" cx="50%" cy="100%"></circle><circle r="1910" cx="50%" cy="100%"></circle><circle r="1814.5" cx="50%" cy="100%"></circle><circle r="1719" cx="50%" cy="100%"></circle><circle r="1623.5" cx="50%" cy="100%"></circle><circle r="1528" cx="50%" cy="100%"></circle><circle r="1432.5" cx="50%" cy="100%"></circle><circle r="1337" cx="50%" cy="100%"></circle><circle r="1241.5" cx="50%" cy="100%"></circle><circle r="1146" cx="50%" cy="100%"></circle><circle r="1050.5" cx="50%" cy="100%"></circle><circle r="955" cx="50%" cy="100%"></circle><circle r="859.5" cx="50%" cy="100%"></circle><circle r="764" cx="50%" cy="100%"></circle><circle r="668.5" cx="50%" cy="100%"></circle><circle r="573" cx="50%" cy="100%"></circle><circle r="477.5" cx="50%" cy="100%"></circle><circle r="382" cx="50%" cy="100%"></circle><circle r="286.5" cx="50%" cy="100%"></circle><circle r="191" cx="50%" cy="100%"></circle><circle r="95.5" cx="50%" cy="100%"></circle></g><g stroke-width="2.5" stroke="url(#rrreflection-grad-3)" fill="none"><circle r="3056" cx="0" cy="50%"></circle><circle r="2960.5" cx="0" cy="50%"></circle><circle r="2865" cx="0" cy="50%"></circle><circle r="2769.5" cx="0" cy="50%"></circle><circle r="2674" cx="0" cy="50%"></circle><circle r="2578.5" cx="0" cy="50%"></circle><circle r="2483" cx="0" cy="50%"></circle><circle r="2387.5" cx="0" cy="50%"></circle><circle r="2292" cx="0" cy="50%"></circle><circle r="2196.5" cx="0" cy="50%"></circle><circle r="2101" cx="0" cy="50%"></circle><circle r="2005.5" cx="0" cy="50%"></circle><circle r="1910" cx="0" cy="50%"></circle><circle r="1814.5" cx="0" cy="50%"></circle><circle r="1719" cx="0" cy="50%"></circle><circle r="1623.5" cx="0" cy="50%"></circle><circle r="1528" cx="0" cy="50%"></circle><circle r="1432.5" cx="0" cy="50%"></circle><circle r="1337" cx="0" cy="50%"></circle><circle r="1241.5" cx="0" cy="50%"></circle><circle r="1146" cx="0" cy="50%"></circle><circle r="1050.5" cx="0" cy="50%"></circle><circle r="955" cx="0" cy="50%"></circle><circle r="859.5" cx="0" cy="50%"></circle><circle r="764" cx="0" cy="50%"></circle><circle r="668.5" cx="0" cy="50%"></circle><circle r="573" cx="0" cy="50%"></circle><circle r="477.5" cx="0" cy="50%"></circle><circle r="382" cx="0" cy="50%"></circle><circle r="286.5" cx="0" cy="50%"></circle><circle r="191" cx="0" cy="50%"></circle><circle r="95.5" cx="0" cy="50%"></circle></g><g stroke-width="2.5" stroke="url(#rrreflection-grad-4)" fill="none"><circle r="3056" cx="100%" cy="50%"></circle><circle r="2960.5" cx="100%" cy="50%"></circle><circle r="2865" cx="100%" cy="50%"></circle><circle r="2769.5" cx="100%" cy="50%"></circle><circle r="2674" cx="100%" cy="50%"></circle><circle r="2578.5" cx="100%" cy="50%"></circle><circle r="2483" cx="100%" cy="50%"></circle><circle r="2387.5" cx="100%" cy="50%"></circle><circle r="2292" cx="100%" cy="50%"></circle><circle r="2196.5" cx="100%" cy="50%"></circle><circle r="2101" cx="100%" cy="50%"></circle><circle r="2005.5" cx="100%" cy="50%"></circle><circle r="1910" cx="100%" cy="50%"></circle><circle r="1814.5" cx="100%" cy="50%"></circle><circle r="1719" cx="100%" cy="50%"></circle><circle r="1623.5" cx="100%" cy="50%"></circle><circle r="1528" cx="100%" cy="50%"></circle><circle r="1432.5" cx="100%" cy="50%"></circle><circle r="1337" cx="100%" cy="50%"></circle><circle r="1241.5" cx="100%" cy="50%"></circle><circle r="1146" cx="100%" cy="50%"></circle><circle r="1050.5" cx="100%" cy="50%"></circle><circle r="955" cx="100%" cy="50%"></circle><circle r="859.5" cx="100%" cy="50%"></circle><circle r="764" cx="100%" cy="50%"></circle><circle r="668.5" cx="100%" cy="50%"></circle><circle r="573" cx="100%" cy="50%"></circle><circle r="477.5" cx="100%" cy="50%"></circle><circle r="382" cx="100%" cy="50%"></circle><circle r="286.5" cx="100%" cy="50%"></circle><circle r="191" cx="100%" cy="50%"></circle><circle r="95.5" cx="100%" cy="50%"></circle></g>
</svg>
