<svg xmlns="http://www.w3.org/2000/svg" version="1.1" xmlns:xlink="http://www.w3.org/1999/xlink" xmlns:svgjs="http://svgjs.dev/svgjs" viewBox="0 0 800 800" opacity="0.64"><defs><linearGradient x1="50%" y1="0%" x2="50%" y2="100%" id="rrreflection-grad"><stop stop-color="hsl(184, 74%, 44%)" stop-opacity="1" offset="45%"></stop><stop stop-color="hsl(332, 87%, 70%)" stop-opacity="1" offset="100%"></stop></linearGradient><linearGradient x1="50%" y1="0%" x2="50%" y2="100%" id="rrreflection-grad-2"><stop stop-color="hsl(332, 87%, 70%)" stop-opacity="1" offset="0%"></stop><stop stop-color="hsl(184, 74%, 44%)" stop-opacity="1" offset="45%"></stop></linearGradient><linearGradient gradientTransform="rotate(270)" x1="50%" y1="0%" x2="50%" y2="100%" id="rrreflection-grad-3"><stop stop-color="hsl(184, 74%, 44%)" stop-opacity="1" offset="45%"></stop><stop stop-color="hsl(332, 87%, 70%)" stop-opacity="1" offset="100%"></stop></linearGradient><linearGradient gradientTransform="rotate(270)" x1="50%" y1="0%" x2="50%" y2="100%" id="rrreflection-grad-4"><stop stop-color="hsl(332, 87%, 70%)" stop-opacity="1" offset="0%"></stop><stop stop-color="hsl(184, 74%, 44%)" stop-opacity="1" offset="45%"></stop></linearGradient></defs><g stroke-width="2.5" stroke="url(#rrreflection-grad)" fill="none"><circle r="1968" cx="50%" cy="0"></circle><circle r="1906.5" cx="50%" cy="0"></circle><circle r="1845" cx="50%" cy="0"></circle><circle r="1783.5" cx="50%" cy="0"></circle><circle r="1722" cx="50%" cy="0"></circle><circle r="1660.5" cx="50%" cy="0"></circle><circle r="1599" cx="50%" cy="0"></circle><circle r="1537.5" cx="50%" cy="0"></circle><circle r="1476" cx="50%" cy="0"></circle><circle r="1414.5" cx="50%" cy="0"></circle><circle r="1353" cx="50%" cy="0"></circle><circle r="1291.5" cx="50%" cy="0"></circle><circle r="1230" cx="50%" cy="0"></circle><circle r="1168.5" cx="50%" cy="0"></circle><circle r="1107" cx="50%" cy="0"></circle><circle r="1045.5" cx="50%" cy="0"></circle><circle r="984" cx="50%" cy="0"></circle><circle r="922.5" cx="50%" cy="0"></circle><circle r="861" cx="50%" cy="0"></circle><circle r="799.5" cx="50%" cy="0"></circle><circle r="738" cx="50%" cy="0"></circle><circle r="676.5" cx="50%" cy="0"></circle><circle r="615" cx="50%" cy="0"></circle><circle r="553.5" cx="50%" cy="0"></circle><circle r="492" cx="50%" cy="0"></circle><circle r="430.5" cx="50%" cy="0"></circle><circle r="369" cx="50%" cy="0"></circle><circle r="307.5" cx="50%" cy="0"></circle><circle r="246" cx="50%" cy="0"></circle><circle r="184.5" cx="50%" cy="0"></circle><circle r="123" cx="50%" cy="0"></circle><circle r="61.5" cx="50%" cy="0"></circle></g><g stroke-width="2.5" stroke="url(#rrreflection-grad-2)" fill="none"><circle r="1968" cx="50%" cy="100%"></circle><circle r="1906.5" cx="50%" cy="100%"></circle><circle r="1845" cx="50%" cy="100%"></circle><circle r="1783.5" cx="50%" cy="100%"></circle><circle r="1722" cx="50%" cy="100%"></circle><circle r="1660.5" cx="50%" cy="100%"></circle><circle r="1599" cx="50%" cy="100%"></circle><circle r="1537.5" cx="50%" cy="100%"></circle><circle r="1476" cx="50%" cy="100%"></circle><circle r="1414.5" cx="50%" cy="100%"></circle><circle r="1353" cx="50%" cy="100%"></circle><circle r="1291.5" cx="50%" cy="100%"></circle><circle r="1230" cx="50%" cy="100%"></circle><circle r="1168.5" cx="50%" cy="100%"></circle><circle r="1107" cx="50%" cy="100%"></circle><circle r="1045.5" cx="50%" cy="100%"></circle><circle r="984" cx="50%" cy="100%"></circle><circle r="922.5" cx="50%" cy="100%"></circle><circle r="861" cx="50%" cy="100%"></circle><circle r="799.5" cx="50%" cy="100%"></circle><circle r="738" cx="50%" cy="100%"></circle><circle r="676.5" cx="50%" cy="100%"></circle><circle r="615" cx="50%" cy="100%"></circle><circle r="553.5" cx="50%" cy="100%"></circle><circle r="492" cx="50%" cy="100%"></circle><circle r="430.5" cx="50%" cy="100%"></circle><circle r="369" cx="50%" cy="100%"></circle><circle r="307.5" cx="50%" cy="100%"></circle><circle r="246" cx="50%" cy="100%"></circle><circle r="184.5" cx="50%" cy="100%"></circle><circle r="123" cx="50%" cy="100%"></circle><circle r="61.5" cx="50%" cy="100%"></circle></g><g stroke-width="2.5" stroke="url(#rrreflection-grad-3)" fill="none"><circle r="1968" cx="0" cy="50%"></circle><circle r="1906.5" cx="0" cy="50%"></circle><circle r="1845" cx="0" cy="50%"></circle><circle r="1783.5" cx="0" cy="50%"></circle><circle r="1722" cx="0" cy="50%"></circle><circle r="1660.5" cx="0" cy="50%"></circle><circle r="1599" cx="0" cy="50%"></circle><circle r="1537.5" cx="0" cy="50%"></circle><circle r="1476" cx="0" cy="50%"></circle><circle r="1414.5" cx="0" cy="50%"></circle><circle r="1353" cx="0" cy="50%"></circle><circle r="1291.5" cx="0" cy="50%"></circle><circle r="1230" cx="0" cy="50%"></circle><circle r="1168.5" cx="0" cy="50%"></circle><circle r="1107" cx="0" cy="50%"></circle><circle r="1045.5" cx="0" cy="50%"></circle><circle r="984" cx="0" cy="50%"></circle><circle r="922.5" cx="0" cy="50%"></circle><circle r="861" cx="0" cy="50%"></circle><circle r="799.5" cx="0" cy="50%"></circle><circle r="738" cx="0" cy="50%"></circle><circle r="676.5" cx="0" cy="50%"></circle><circle r="615" cx="0" cy="50%"></circle><circle r="553.5" cx="0" cy="50%"></circle><circle r="492" cx="0" cy="50%"></circle><circle r="430.5" cx="0" cy="50%"></circle><circle r="369" cx="0" cy="50%"></circle><circle r="307.5" cx="0" cy="50%"></circle><circle r="246" cx="0" cy="50%"></circle><circle r="184.5" cx="0" cy="50%"></circle><circle r="123" cx="0" cy="50%"></circle><circle r="61.5" cx="0" cy="50%"></circle></g><g stroke-width="2.5" stroke="url(#rrreflection-grad-4)" fill="none"><circle r="1968" cx="100%" cy="50%"></circle><circle r="1906.5" cx="100%" cy="50%"></circle><circle r="1845" cx="100%" cy="50%"></circle><circle r="1783.5" cx="100%" cy="50%"></circle><circle r="1722" cx="100%" cy="50%"></circle><circle r="1660.5" cx="100%" cy="50%"></circle><circle r="1599" cx="100%" cy="50%"></circle><circle r="1537.5" cx="100%" cy="50%"></circle><circle r="1476" cx="100%" cy="50%"></circle><circle r="1414.5" cx="100%" cy="50%"></circle><circle r="1353" cx="100%" cy="50%"></circle><circle r="1291.5" cx="100%" cy="50%"></circle><circle r="1230" cx="100%" cy="50%"></circle><circle r="1168.5" cx="100%" cy="50%"></circle><circle r="1107" cx="100%" cy="50%"></circle><circle r="1045.5" cx="100%" cy="50%"></circle><circle r="984" cx="100%" cy="50%"></circle><circle r="922.5" cx="100%" cy="50%"></circle><circle r="861" cx="100%" cy="50%"></circle><circle r="799.5" cx="100%" cy="50%"></circle><circle r="738" cx="100%" cy="50%"></circle><circle r="676.5" cx="100%" cy="50%"></circle><circle r="615" cx="100%" cy="50%"></circle><circle r="553.5" cx="100%" cy="50%"></circle><circle r="492" cx="100%" cy="50%"></circle><circle r="430.5" cx="100%" cy="50%"></circle><circle r="369" cx="100%" cy="50%"></circle><circle r="307.5" cx="100%" cy="50%"></circle><circle r="246" cx="100%" cy="50%"></circle><circle r="184.5" cx="100%" cy="50%"></circle><circle r="123" cx="100%" cy="50%"></circle><circle r="61.5" cx="100%" cy="50%"></circle></g>
</svg>
