<svg id="backgroundTwo" class="background-svg" xmlns="http://www.w3.org/2000/svg" version="1.1" xmlns:xlink="http://www.w3.org/1999/xlink" viewBox="0 0 800 800" opacity="0.64" preserveAspectRatio="xMinYMin meet"><defs><linearGradient x1="50%" y1="0%" x2="50%" y2="100%" id="rrreflection-grad"><stop stop-color="hsl(184, 74%, 44%)" stop-opacity="1" offset="45%"></stop><stop stop-color="hsl(332, 87%, 70%)" stop-opacity="1" offset="100%"></stop></linearGradient><linearGradient x1="50%" y1="0%" x2="50%" y2="100%" id="rrreflection-grad-2"><stop stop-color="hsl(332, 87%, 70%)" stop-opacity="1" offset="0%"></stop><stop stop-color="hsl(184, 74%, 44%)" stop-opacity="1" offset="45%"></stop></linearGradient><linearGradient gradientTransform="rotate(270)" x1="50%" y1="0%" x2="50%" y2="100%" id="rrreflection-grad-3"><stop stop-color="hsl(184, 74%, 44%)" stop-opacity="1" offset="45%"></stop><stop stop-color="hsl(332, 87%, 70%)" stop-opacity="1" offset="100%"></stop></linearGradient><linearGradient gradientTransform="rotate(270)" x1="50%" y1="0%" x2="50%" y2="100%" id="rrreflection-grad-4"><stop stop-color="hsl(332, 87%, 70%)" stop-opacity="1" offset="0%"></stop><stop stop-color="hsl(184, 74%, 44%)" stop-opacity="1" offset="45%"></stop></linearGradient></defs><g stroke-width="2.5" stroke="url(#rrreflection-grad)" fill="none"><circle r="1536" cx="50%" cy="0"></circle><circle r="1488" cx="50%" cy="0"></circle><circle r="1440" cx="50%" cy="0"></circle><circle r="1392" cx="50%" cy="0"></circle><circle r="1344" cx="50%" cy="0"></circle><circle r="1296" cx="50%" cy="0"></circle><circle r="1248" cx="50%" cy="0"></circle><circle r="1200" cx="50%" cy="0"></circle><circle r="1152" cx="50%" cy="0"></circle><circle r="1104" cx="50%" cy="0"></circle><circle r="1056" cx="50%" cy="0"></circle><circle r="1008" cx="50%" cy="0"></circle><circle r="960" cx="50%" cy="0"></circle><circle r="912" cx="50%" cy="0"></circle><circle r="864" cx="50%" cy="0"></circle><circle r="816" cx="50%" cy="0"></circle><circle r="768" cx="50%" cy="0"></circle><circle r="720" cx="50%" cy="0"></circle><circle r="672" cx="50%" cy="0"></circle><circle r="624" cx="50%" cy="0"></circle><circle r="576" cx="50%" cy="0"></circle><circle r="528" cx="50%" cy="0"></circle><circle r="480" cx="50%" cy="0"></circle><circle r="432" cx="50%" cy="0"></circle><circle r="384" cx="50%" cy="0"></circle><circle r="336" cx="50%" cy="0"></circle><circle r="288" cx="50%" cy="0"></circle><circle r="240" cx="50%" cy="0"></circle><circle r="192" cx="50%" cy="0"></circle><circle r="144" cx="50%" cy="0"></circle><circle r="96" cx="50%" cy="0"></circle><circle r="48" cx="50%" cy="0"></circle></g><g stroke-width="2.5" stroke="url(#rrreflection-grad-2)" fill="none"><circle r="1536" cx="50%" cy="100%"></circle><circle r="1488" cx="50%" cy="100%"></circle><circle r="1440" cx="50%" cy="100%"></circle><circle r="1392" cx="50%" cy="100%"></circle><circle r="1344" cx="50%" cy="100%"></circle><circle r="1296" cx="50%" cy="100%"></circle><circle r="1248" cx="50%" cy="100%"></circle><circle r="1200" cx="50%" cy="100%"></circle><circle r="1152" cx="50%" cy="100%"></circle><circle r="1104" cx="50%" cy="100%"></circle><circle r="1056" cx="50%" cy="100%"></circle><circle r="1008" cx="50%" cy="100%"></circle><circle r="960" cx="50%" cy="100%"></circle><circle r="912" cx="50%" cy="100%"></circle><circle r="864" cx="50%" cy="100%"></circle><circle r="816" cx="50%" cy="100%"></circle><circle r="768" cx="50%" cy="100%"></circle><circle r="720" cx="50%" cy="100%"></circle><circle r="672" cx="50%" cy="100%"></circle><circle r="624" cx="50%" cy="100%"></circle><circle r="576" cx="50%" cy="100%"></circle><circle r="528" cx="50%" cy="100%"></circle><circle r="480" cx="50%" cy="100%"></circle><circle r="432" cx="50%" cy="100%"></circle><circle r="384" cx="50%" cy="100%"></circle><circle r="336" cx="50%" cy="100%"></circle><circle r="288" cx="50%" cy="100%"></circle><circle r="240" cx="50%" cy="100%"></circle><circle r="192" cx="50%" cy="100%"></circle><circle r="144" cx="50%" cy="100%"></circle><circle r="96" cx="50%" cy="100%"></circle><circle r="48" cx="50%" cy="100%"></circle></g><g stroke-width="2.5" stroke="url(#rrreflection-grad-3)" fill="none"><circle r="1536" cx="0" cy="50%"></circle><circle r="1488" cx="0" cy="50%"></circle><circle r="1440" cx="0" cy="50%"></circle><circle r="1392" cx="0" cy="50%"></circle><circle r="1344" cx="0" cy="50%"></circle><circle r="1296" cx="0" cy="50%"></circle><circle r="1248" cx="0" cy="50%"></circle><circle r="1200" cx="0" cy="50%"></circle><circle r="1152" cx="0" cy="50%"></circle><circle r="1104" cx="0" cy="50%"></circle><circle r="1056" cx="0" cy="50%"></circle><circle r="1008" cx="0" cy="50%"></circle><circle r="960" cx="0" cy="50%"></circle><circle r="912" cx="0" cy="50%"></circle><circle r="864" cx="0" cy="50%"></circle><circle r="816" cx="0" cy="50%"></circle><circle r="768" cx="0" cy="50%"></circle><circle r="720" cx="0" cy="50%"></circle><circle r="672" cx="0" cy="50%"></circle><circle r="624" cx="0" cy="50%"></circle><circle r="576" cx="0" cy="50%"></circle><circle r="528" cx="0" cy="50%"></circle><circle r="480" cx="0" cy="50%"></circle><circle r="432" cx="0" cy="50%"></circle><circle r="384" cx="0" cy="50%"></circle><circle r="336" cx="0" cy="50%"></circle><circle r="288" cx="0" cy="50%"></circle><circle r="240" cx="0" cy="50%"></circle><circle r="192" cx="0" cy="50%"></circle><circle r="144" cx="0" cy="50%"></circle><circle r="96" cx="0" cy="50%"></circle><circle r="48" cx="0" cy="50%"></circle></g><g stroke-width="2.5" stroke="url(#rrreflection-grad-4)" fill="none"><circle r="1536" cx="100%" cy="50%"></circle><circle r="1488" cx="100%" cy="50%"></circle><circle r="1440" cx="100%" cy="50%"></circle><circle r="1392" cx="100%" cy="50%"></circle><circle r="1344" cx="100%" cy="50%"></circle><circle r="1296" cx="100%" cy="50%"></circle><circle r="1248" cx="100%" cy="50%"></circle><circle r="1200" cx="100%" cy="50%"></circle><circle r="1152" cx="100%" cy="50%"></circle><circle r="1104" cx="100%" cy="50%"></circle><circle r="1056" cx="100%" cy="50%"></circle><circle r="1008" cx="100%" cy="50%"></circle><circle r="960" cx="100%" cy="50%"></circle><circle r="912" cx="100%" cy="50%"></circle><circle r="864" cx="100%" cy="50%"></circle><circle r="816" cx="100%" cy="50%"></circle><circle r="768" cx="100%" cy="50%"></circle><circle r="720" cx="100%" cy="50%"></circle><circle r="672" cx="100%" cy="50%"></circle><circle r="624" cx="100%" cy="50%"></circle><circle r="576" cx="100%" cy="50%"></circle><circle r="528" cx="100%" cy="50%"></circle><circle r="480" cx="100%" cy="50%"></circle><circle r="432" cx="100%" cy="50%"></circle><circle r="384" cx="100%" cy="50%"></circle><circle r="336" cx="100%" cy="50%"></circle><circle r="288" cx="100%" cy="50%"></circle><circle r="240" cx="100%" cy="50%"></circle><circle r="192" cx="100%" cy="50%"></circle><circle r="144" cx="100%" cy="50%"></circle><circle r="96" cx="100%" cy="50%"></circle><circle r="48" cx="100%" cy="50%"></circle></g>
</svg>
