<svg class="background-svg" xmlns="http://www.w3.org/2000/svg" viewBox="0 0 800 800" opacity=".64" preserveAspectRatio="xMinYMin meet"><defs><linearGradient x1="50%" y1="0%" x2="50%" y2="100%" id="a"><stop stop-color="hsl(184, 74%, 44%)" offset="45%"/><stop stop-color="hsl(332, 87%, 70%)" offset="100%"/></linearGradient><linearGradient x1="50%" y1="0%" x2="50%" y2="100%" id="b"><stop stop-color="hsl(332, 87%, 70%)" offset="0%"/><stop stop-color="hsl(184, 74%, 44%)" offset="45%"/></linearGradient><linearGradient gradientTransform="rotate(270)" x1="50%" y1="0%" x2="50%" y2="100%" id="c"><stop stop-color="hsl(184, 74%, 44%)" offset="45%"/><stop stop-color="hsl(332, 87%, 70%)" offset="100%"/></linearGradient><linearGradient gradientTransform="rotate(270)" x1="50%" y1="0%" x2="50%" y2="100%" id="d"><stop stop-color="hsl(332, 87%, 70%)" offset="0%"/><stop stop-color="hsl(184, 74%, 44%)" offset="45%"/></linearGradient></defs><g stroke-width="2.5" stroke="url(#a)" fill="none"><circle r="3552" cx="50%"/><circle r="3441" cx="50%"/><circle r="3330" cx="50%"/><circle r="3219" cx="50%"/><circle r="3108" cx="50%"/><circle r="2997" cx="50%"/><circle r="2886" cx="50%"/><circle r="2775" cx="50%"/><circle r="2664" cx="50%"/><circle r="2553" cx="50%"/><circle r="2442" cx="50%"/><circle r="2331" cx="50%"/><circle r="2220" cx="50%"/><circle r="2109" cx="50%"/><circle r="1998" cx="50%"/><circle r="1887" cx="50%"/><circle r="1776" cx="50%"/><circle r="1665" cx="50%"/><circle r="1554" cx="50%"/><circle r="1443" cx="50%"/><circle r="1332" cx="50%"/><circle r="1221" cx="50%"/><circle r="1110" cx="50%"/><circle r="999" cx="50%"/><circle r="888" cx="50%"/><circle r="777" cx="50%"/><circle r="666" cx="50%"/><circle r="555" cx="50%"/><circle r="444" cx="50%"/><circle r="333" cx="50%"/><circle r="222" cx="50%"/><circle r="111" cx="50%"/></g><g stroke-width="2.5" stroke="url(#b)" fill="none"><circle r="3552" cx="50%" cy="100%"/><circle r="3441" cx="50%" cy="100%"/><circle r="3330" cx="50%" cy="100%"/><circle r="3219" cx="50%" cy="100%"/><circle r="3108" cx="50%" cy="100%"/><circle r="2997" cx="50%" cy="100%"/><circle r="2886" cx="50%" cy="100%"/><circle r="2775" cx="50%" cy="100%"/><circle r="2664" cx="50%" cy="100%"/><circle r="2553" cx="50%" cy="100%"/><circle r="2442" cx="50%" cy="100%"/><circle r="2331" cx="50%" cy="100%"/><circle r="2220" cx="50%" cy="100%"/><circle r="2109" cx="50%" cy="100%"/><circle r="1998" cx="50%" cy="100%"/><circle r="1887" cx="50%" cy="100%"/><circle r="1776" cx="50%" cy="100%"/><circle r="1665" cx="50%" cy="100%"/><circle r="1554" cx="50%" cy="100%"/><circle r="1443" cx="50%" cy="100%"/><circle r="1332" cx="50%" cy="100%"/><circle r="1221" cx="50%" cy="100%"/><circle r="1110" cx="50%" cy="100%"/><circle r="999" cx="50%" cy="100%"/><circle r="888" cx="50%" cy="100%"/><circle r="777" cx="50%" cy="100%"/><circle r="666" cx="50%" cy="100%"/><circle r="555" cx="50%" cy="100%"/><circle r="444" cx="50%" cy="100%"/><circle r="333" cx="50%" cy="100%"/><circle r="222" cx="50%" cy="100%"/><circle r="111" cx="50%" cy="100%"/></g><g stroke-width="2.5" stroke="url(#c)" fill="none"><circle r="3552" cy="50%"/><circle r="3441" cy="50%"/><circle r="3330" cy="50%"/><circle r="3219" cy="50%"/><circle r="3108" cy="50%"/><circle r="2997" cy="50%"/><circle r="2886" cy="50%"/><circle r="2775" cy="50%"/><circle r="2664" cy="50%"/><circle r="2553" cy="50%"/><circle r="2442" cy="50%"/><circle r="2331" cy="50%"/><circle r="2220" cy="50%"/><circle r="2109" cy="50%"/><circle r="1998" cy="50%"/><circle r="1887" cy="50%"/><circle r="1776" cy="50%"/><circle r="1665" cy="50%"/><circle r="1554" cy="50%"/><circle r="1443" cy="50%"/><circle r="1332" cy="50%"/><circle r="1221" cy="50%"/><circle r="1110" cy="50%"/><circle r="999" cy="50%"/><circle r="888" cy="50%"/><circle r="777" cy="50%"/><circle r="666" cy="50%"/><circle r="555" cy="50%"/><circle r="444" cy="50%"/><circle r="333" cy="50%"/><circle r="222" cy="50%"/><circle r="111" cy="50%"/></g><g stroke-width="2.5" stroke="url(#d)" fill="none"><circle r="3552" cx="100%" cy="50%"/><circle r="3441" cx="100%" cy="50%"/><circle r="3330" cx="100%" cy="50%"/><circle r="3219" cx="100%" cy="50%"/><circle r="3108" cx="100%" cy="50%"/><circle r="2997" cx="100%" cy="50%"/><circle r="2886" cx="100%" cy="50%"/><circle r="2775" cx="100%" cy="50%"/><circle r="2664" cx="100%" cy="50%"/><circle r="2553" cx="100%" cy="50%"/><circle r="2442" cx="100%" cy="50%"/><circle r="2331" cx="100%" cy="50%"/><circle r="2220" cx="100%" cy="50%"/><circle r="2109" cx="100%" cy="50%"/><circle r="1998" cx="100%" cy="50%"/><circle r="1887" cx="100%" cy="50%"/><circle r="1776" cx="100%" cy="50%"/><circle r="1665" cx="100%" cy="50%"/><circle r="1554" cx="100%" cy="50%"/><circle r="1443" cx="100%" cy="50%"/><circle r="1332" cx="100%" cy="50%"/><circle r="1221" cx="100%" cy="50%"/><circle r="1110" cx="100%" cy="50%"/><circle r="999" cx="100%" cy="50%"/><circle r="888" cx="100%" cy="50%"/><circle r="777" cx="100%" cy="50%"/><circle r="666" cx="100%" cy="50%"/><circle r="555" cx="100%" cy="50%"/><circle r="444" cx="100%" cy="50%"/><circle r="333" cx="100%" cy="50%"/><circle r="222" cx="100%" cy="50%"/><circle r="111" cx="100%" cy="50%"/></g></svg>