<svg class="background-svg" xmlns="http://www.w3.org/2000/svg" viewBox="0 0 800 800" opacity=".64"><defs><linearGradient x1="50%" y1="0%" x2="50%" y2="100%" id="a"><stop stop-color="hsl(184, 74%, 44%)" offset="45%"/><stop stop-color="hsl(332, 87%, 70%)" offset="100%"/></linearGradient><linearGradient x1="50%" y1="0%" x2="50%" y2="100%" id="b"><stop stop-color="hsl(332, 87%, 70%)" offset="0%"/><stop stop-color="hsl(184, 74%, 44%)" offset="45%"/></linearGradient><linearGradient gradientTransform="rotate(270)" x1="50%" y1="0%" x2="50%" y2="100%" id="c"><stop stop-color="hsl(184, 74%, 44%)" offset="45%"/><stop stop-color="hsl(332, 87%, 70%)" offset="100%"/></linearGradient><linearGradient gradientTransform="rotate(270)" x1="50%" y1="0%" x2="50%" y2="100%" id="d"><stop stop-color="hsl(332, 87%, 70%)" offset="0%"/><stop stop-color="hsl(184, 74%, 44%)" offset="45%"/></linearGradient></defs><g stroke-width="2.5" stroke="url(#a)" fill="none"><circle r="3056" cx="50%"/><circle r="2960.5" cx="50%"/><circle r="2865" cx="50%"/><circle r="2769.5" cx="50%"/><circle r="2674" cx="50%"/><circle r="2578.5" cx="50%"/><circle r="2483" cx="50%"/><circle r="2387.5" cx="50%"/><circle r="2292" cx="50%"/><circle r="2196.5" cx="50%"/><circle r="2101" cx="50%"/><circle r="2005.5" cx="50%"/><circle r="1910" cx="50%"/><circle r="1814.5" cx="50%"/><circle r="1719" cx="50%"/><circle r="1623.5" cx="50%"/><circle r="1528" cx="50%"/><circle r="1432.5" cx="50%"/><circle r="1337" cx="50%"/><circle r="1241.5" cx="50%"/><circle r="1146" cx="50%"/><circle r="1050.5" cx="50%"/><circle r="955" cx="50%"/><circle r="859.5" cx="50%"/><circle r="764" cx="50%"/><circle r="668.5" cx="50%"/><circle r="573" cx="50%"/><circle r="477.5" cx="50%"/><circle r="382" cx="50%"/><circle r="286.5" cx="50%"/><circle r="191" cx="50%"/><circle r="95.5" cx="50%"/></g><g stroke-width="2.5" stroke="url(#b)" fill="none"><circle r="3056" cx="50%" cy="100%"/><circle r="2960.5" cx="50%" cy="100%"/><circle r="2865" cx="50%" cy="100%"/><circle r="2769.5" cx="50%" cy="100%"/><circle r="2674" cx="50%" cy="100%"/><circle r="2578.5" cx="50%" cy="100%"/><circle r="2483" cx="50%" cy="100%"/><circle r="2387.5" cx="50%" cy="100%"/><circle r="2292" cx="50%" cy="100%"/><circle r="2196.5" cx="50%" cy="100%"/><circle r="2101" cx="50%" cy="100%"/><circle r="2005.5" cx="50%" cy="100%"/><circle r="1910" cx="50%" cy="100%"/><circle r="1814.5" cx="50%" cy="100%"/><circle r="1719" cx="50%" cy="100%"/><circle r="1623.5" cx="50%" cy="100%"/><circle r="1528" cx="50%" cy="100%"/><circle r="1432.5" cx="50%" cy="100%"/><circle r="1337" cx="50%" cy="100%"/><circle r="1241.5" cx="50%" cy="100%"/><circle r="1146" cx="50%" cy="100%"/><circle r="1050.5" cx="50%" cy="100%"/><circle r="955" cx="50%" cy="100%"/><circle r="859.5" cx="50%" cy="100%"/><circle r="764" cx="50%" cy="100%"/><circle r="668.5" cx="50%" cy="100%"/><circle r="573" cx="50%" cy="100%"/><circle r="477.5" cx="50%" cy="100%"/><circle r="382" cx="50%" cy="100%"/><circle r="286.5" cx="50%" cy="100%"/><circle r="191" cx="50%" cy="100%"/><circle r="95.5" cx="50%" cy="100%"/></g><g stroke-width="2.5" stroke="url(#c)" fill="none"><circle r="3056" cy="50%"/><circle r="2960.5" cy="50%"/><circle r="2865" cy="50%"/><circle r="2769.5" cy="50%"/><circle r="2674" cy="50%"/><circle r="2578.5" cy="50%"/><circle r="2483" cy="50%"/><circle r="2387.5" cy="50%"/><circle r="2292" cy="50%"/><circle r="2196.5" cy="50%"/><circle r="2101" cy="50%"/><circle r="2005.5" cy="50%"/><circle r="1910" cy="50%"/><circle r="1814.5" cy="50%"/><circle r="1719" cy="50%"/><circle r="1623.5" cy="50%"/><circle r="1528" cy="50%"/><circle r="1432.5" cy="50%"/><circle r="1337" cy="50%"/><circle r="1241.5" cy="50%"/><circle r="1146" cy="50%"/><circle r="1050.5" cy="50%"/><circle r="955" cy="50%"/><circle r="859.5" cy="50%"/><circle r="764" cy="50%"/><circle r="668.5" cy="50%"/><circle r="573" cy="50%"/><circle r="477.5" cy="50%"/><circle r="382" cy="50%"/><circle r="286.5" cy="50%"/><circle r="191" cy="50%"/><circle r="95.5" cy="50%"/></g><g stroke-width="2.5" stroke="url(#d)" fill="none"><circle r="3056" cx="100%" cy="50%"/><circle r="2960.5" cx="100%" cy="50%"/><circle r="2865" cx="100%" cy="50%"/><circle r="2769.5" cx="100%" cy="50%"/><circle r="2674" cx="100%" cy="50%"/><circle r="2578.5" cx="100%" cy="50%"/><circle r="2483" cx="100%" cy="50%"/><circle r="2387.5" cx="100%" cy="50%"/><circle r="2292" cx="100%" cy="50%"/><circle r="2196.5" cx="100%" cy="50%"/><circle r="2101" cx="100%" cy="50%"/><circle r="2005.5" cx="100%" cy="50%"/><circle r="1910" cx="100%" cy="50%"/><circle r="1814.5" cx="100%" cy="50%"/><circle r="1719" cx="100%" cy="50%"/><circle r="1623.5" cx="100%" cy="50%"/><circle r="1528" cx="100%" cy="50%"/><circle r="1432.5" cx="100%" cy="50%"/><circle r="1337" cx="100%" cy="50%"/><circle r="1241.5" cx="100%" cy="50%"/><circle r="1146" cx="100%" cy="50%"/><circle r="1050.5" cx="100%" cy="50%"/><circle r="955" cx="100%" cy="50%"/><circle r="859.5" cx="100%" cy="50%"/><circle r="764" cx="100%" cy="50%"/><circle r="668.5" cx="100%" cy="50%"/><circle r="573" cx="100%" cy="50%"/><circle r="477.5" cx="100%" cy="50%"/><circle r="382" cx="100%" cy="50%"/><circle r="286.5" cx="100%" cy="50%"/><circle r="191" cx="100%" cy="50%"/><circle r="95.5" cx="100%" cy="50%"/></g></svg>