<svg xmlns="http://www.w3.org/2000/svg" class="background-svg" viewBox="0 0 800 800" opacity=".64"><defs><linearGradient x1="50%" y1="0%" x2="50%" y2="100%" id="a"><stop stop-color="hsl(184, 74%, 44%)" offset="45%"/><stop stop-color="hsl(332, 87%, 70%)" offset="100%"/></linearGradient><linearGradient x1="50%" y1="0%" x2="50%" y2="100%" id="b"><stop stop-color="hsl(332, 87%, 70%)" offset="0%"/><stop stop-color="hsl(184, 74%, 44%)" offset="45%"/></linearGradient><linearGradient gradientTransform="rotate(270)" x1="50%" y1="0%" x2="50%" y2="100%" id="c"><stop stop-color="hsl(184, 74%, 44%)" offset="45%"/><stop stop-color="hsl(332, 87%, 70%)" offset="100%"/></linearGradient><linearGradient gradientTransform="rotate(270)" x1="50%" y1="0%" x2="50%" y2="100%" id="d"><stop stop-color="hsl(332, 87%, 70%)" offset="0%"/><stop stop-color="hsl(184, 74%, 44%)" offset="45%"/></linearGradient></defs><g stroke-width="2.5" stroke="url(#a)" fill="none"><circle r="576" cx="50%"/><circle r="558" cx="50%"/><circle r="540" cx="50%"/><circle r="522" cx="50%"/><circle r="504" cx="50%"/><circle r="486" cx="50%"/><circle r="468" cx="50%"/><circle r="450" cx="50%"/><circle r="432" cx="50%"/><circle r="414" cx="50%"/><circle r="396" cx="50%"/><circle r="378" cx="50%"/><circle r="360" cx="50%"/><circle r="342" cx="50%"/><circle r="324" cx="50%"/><circle r="306" cx="50%"/><circle r="288" cx="50%"/><circle r="270" cx="50%"/><circle r="252" cx="50%"/><circle r="234" cx="50%"/><circle r="216" cx="50%"/><circle r="198" cx="50%"/><circle r="180" cx="50%"/><circle r="162" cx="50%"/><circle r="144" cx="50%"/><circle r="126" cx="50%"/><circle r="108" cx="50%"/><circle r="90" cx="50%"/><circle r="72" cx="50%"/><circle r="54" cx="50%"/><circle r="36" cx="50%"/><circle r="18" cx="50%"/></g><g stroke-width="2.5" stroke="url(#b)" fill="none"><circle r="576" cx="50%" cy="100%"/><circle r="558" cx="50%" cy="100%"/><circle r="540" cx="50%" cy="100%"/><circle r="522" cx="50%" cy="100%"/><circle r="504" cx="50%" cy="100%"/><circle r="486" cx="50%" cy="100%"/><circle r="468" cx="50%" cy="100%"/><circle r="450" cx="50%" cy="100%"/><circle r="432" cx="50%" cy="100%"/><circle r="414" cx="50%" cy="100%"/><circle r="396" cx="50%" cy="100%"/><circle r="378" cx="50%" cy="100%"/><circle r="360" cx="50%" cy="100%"/><circle r="342" cx="50%" cy="100%"/><circle r="324" cx="50%" cy="100%"/><circle r="306" cx="50%" cy="100%"/><circle r="288" cx="50%" cy="100%"/><circle r="270" cx="50%" cy="100%"/><circle r="252" cx="50%" cy="100%"/><circle r="234" cx="50%" cy="100%"/><circle r="216" cx="50%" cy="100%"/><circle r="198" cx="50%" cy="100%"/><circle r="180" cx="50%" cy="100%"/><circle r="162" cx="50%" cy="100%"/><circle r="144" cx="50%" cy="100%"/><circle r="126" cx="50%" cy="100%"/><circle r="108" cx="50%" cy="100%"/><circle r="90" cx="50%" cy="100%"/><circle r="72" cx="50%" cy="100%"/><circle r="54" cx="50%" cy="100%"/><circle r="36" cx="50%" cy="100%"/><circle r="18" cx="50%" cy="100%"/></g><g stroke-width="2.5" stroke="url(#c)" fill="none"><circle r="576" cy="50%"/><circle r="558" cy="50%"/><circle r="540" cy="50%"/><circle r="522" cy="50%"/><circle r="504" cy="50%"/><circle r="486" cy="50%"/><circle r="468" cy="50%"/><circle r="450" cy="50%"/><circle r="432" cy="50%"/><circle r="414" cy="50%"/><circle r="396" cy="50%"/><circle r="378" cy="50%"/><circle r="360" cy="50%"/><circle r="342" cy="50%"/><circle r="324" cy="50%"/><circle r="306" cy="50%"/><circle r="288" cy="50%"/><circle r="270" cy="50%"/><circle r="252" cy="50%"/><circle r="234" cy="50%"/><circle r="216" cy="50%"/><circle r="198" cy="50%"/><circle r="180" cy="50%"/><circle r="162" cy="50%"/><circle r="144" cy="50%"/><circle r="126" cy="50%"/><circle r="108" cy="50%"/><circle r="90" cy="50%"/><circle r="72" cy="50%"/><circle r="54" cy="50%"/><circle r="36" cy="50%"/><circle r="18" cy="50%"/></g><g stroke-width="2.5" stroke="url(#d)" fill="none"><circle r="576" cx="100%" cy="50%"/><circle r="558" cx="100%" cy="50%"/><circle r="540" cx="100%" cy="50%"/><circle r="522" cx="100%" cy="50%"/><circle r="504" cx="100%" cy="50%"/><circle r="486" cx="100%" cy="50%"/><circle r="468" cx="100%" cy="50%"/><circle r="450" cx="100%" cy="50%"/><circle r="432" cx="100%" cy="50%"/><circle r="414" cx="100%" cy="50%"/><circle r="396" cx="100%" cy="50%"/><circle r="378" cx="100%" cy="50%"/><circle r="360" cx="100%" cy="50%"/><circle r="342" cx="100%" cy="50%"/><circle r="324" cx="100%" cy="50%"/><circle r="306" cx="100%" cy="50%"/><circle r="288" cx="100%" cy="50%"/><circle r="270" cx="100%" cy="50%"/><circle r="252" cx="100%" cy="50%"/><circle r="234" cx="100%" cy="50%"/><circle r="216" cx="100%" cy="50%"/><circle r="198" cx="100%" cy="50%"/><circle r="180" cx="100%" cy="50%"/><circle r="162" cx="100%" cy="50%"/><circle r="144" cx="100%" cy="50%"/><circle r="126" cx="100%" cy="50%"/><circle r="108" cx="100%" cy="50%"/><circle r="90" cx="100%" cy="50%"/><circle r="72" cx="100%" cy="50%"/><circle r="54" cx="100%" cy="50%"/><circle r="36" cx="100%" cy="50%"/><circle r="18" cx="100%" cy="50%"/></g></svg>