<svg xmlns="http://www.w3.org/2000/svg" version="1.1" xmlns:xlink="http://www.w3.org/1999/xlink" xmlns:svgjs="http://svgjs.com/svgjs" width="566.84" height="566.84"><svg id="SvgjsSvg1004" data-name="Layer 1" xmlns="http://www.w3.org/2000/svg" xmlns:xlink="http://www.w3.org/1999/xlink" viewBox="0 0 566.84 566.84"><defs><style>.cls-1{fill:#681d5c;}.cls-2{fill:#231f20;}.cls-3{fill:#5951a2;}.cls-4{fill:#ee2f5b;}.cls-5{fill:#ab459a;}.cls-6{fill:#61c5bd;}.cls-7{fill:url(#linear-gradient);}.cls-8{fill:#df569f;}.cls-9{fill:#0274ba;}.cls-10{fill:#3cbeb4;}.cls-11{fill:#6252a3;}.cls-12{fill:#dc238d;}.cls-13{fill:#5e8bc8;}.cls-14{fill:#cf1d52;}.cls-15{fill:#58abd2;}.cls-16{fill:#4459a8;}.cls-17{fill:#26c2e4;}.cls-18{fill:url(#linear-gradient-2);}.cls-19{fill:url(#linear-gradient-3);}.cls-20{fill:url(#linear-gradient-4);}</style><linearGradient id="SvgjsLinearGradient1003" x1="224.57" y1="374.3" x2="313.6" y2="374.3" gradientUnits="userSpaceOnUse"><stop offset="0" stop-color="#fff"></stop><stop offset="0"></stop></linearGradient><linearGradient id="SvgjsLinearGradient1002" x1="168.05" y1="332.37" x2="253.53" y2="332.37" xlink:href="#linear-gradient"></linearGradient><linearGradient id="SvgjsLinearGradient1001" x1="166.78" y1="257.33" x2="171.75" y2="257.33" xlink:href="#linear-gradient"></linearGradient><linearGradient id="SvgjsLinearGradient1000" x1="166.3" y1="256.94" x2="170.8" y2="256.94" xlink:href="#linear-gradient"></linearGradient></defs><circle class="cls-1" cx="283.42" cy="283.42" r="280.92"></circle><path class="cls-2" d="M33.51,403.64a278.35,278.35,0,0,1,431.3-232.73,280.5,280.5,0,0,1,61.83,55.45A276.94,276.94,0,0,1,589.53,382a280.83,280.83,0,0,1-7.09,87.82,277.31,277.31,0,0,1-32.25,77.95A279.53,279.53,0,0,1,426.85,657.33,276.18,276.18,0,0,1,344,680.25a281.66,281.66,0,0,1-87.86-3.77,277.16,277.16,0,0,1-79.72-29.55A277.78,277.78,0,0,1,33.51,403.64c0-3.22-5-3.22-5,0A283.38,283.38,0,0,0,530.65,583.89a285.62,285.62,0,0,0,43.69-73,282.38,282.38,0,0,0,20.16-85.22,285.24,285.24,0,0,0-7.15-89.17A282.06,282.06,0,0,0,554.51,257,283.69,283.69,0,0,0,255.21,125.9,283.34,283.34,0,0,0,31.84,360.15a290.43,290.43,0,0,0-3.33,43.49C28.51,406.86,33.51,406.86,33.51,403.64Z" transform="translate(-28.51 -120.22)"></path><path class="cls-3" d="M493.56,484.16c-18,16.57-39.36,29.8-62.87,36.52-1.13.32-2.26.63-3.4.91-22.58,5.78-47,5.31-68.67-3.08a93.22,93.22,0,0,1-40.28-30,81.23,81.23,0,0,1-9.25-15.23A45.89,45.89,0,0,1,330.65,450c12.41-6.25,27.05-6.48,40.73-3.94.36.05.71.12,1.07.19l.48.1c13.81,2.76,27,8,40.46,12.07a233.75,233.75,0,0,0,73.55,9.67c4.33-.13,9.63.15,11.57,4C500.59,476.32,497,481,493.56,484.16Z" transform="translate(-28.51 -120.22)"></path><path d="M491.8,482.39c-20.07,18.43-44.43,32.75-71.33,38.2-27.46,5.56-57.06,1.42-80.34-14.71A85.76,85.76,0,0,1,311.25,472l.25,1.93a43.45,43.45,0,0,1,26.19-24.15c13.07-4.33,27.21-3,40.35.3,14.7,3.64,28.76,9.42,43.43,13.19a235.81,235.81,0,0,0,45.36,7q6.57.38,13.16.39c3.74,0,7.6-.43,11.33,0,2.21.27,4.92,1,5.28,3.54.46,3.14-2.75,6.21-4.8,8.12-2.37,2.2,1.18,5.73,3.53,3.54,2.51-2.33,4.92-5.15,5.9-8.49a8.59,8.59,0,0,0-2.49-9c-2.41-2-5.54-2.65-8.61-2.82-3.62-.2-7.27.09-10.89.08a230.64,230.64,0,0,1-48.08-5.26c-7.77-1.7-15.43-3.82-23-6.26s-15.16-5.11-22.84-7.33c-14.22-4.08-29.35-6.55-44-3.26a49.06,49.06,0,0,0-31.85,23.22,46.87,46.87,0,0,0-2.25,4.48c-.49,1.15-.84,2-.3,3.23.4.89.84,1.75,1.28,2.62a81,81,0,0,0,5.73,9.55,91.82,91.82,0,0,0,13.76,15.64A97.8,97.8,0,0,0,363.9,523a113.19,113.19,0,0,0,45,4.35,133.83,133.83,0,0,0,42.53-11.72,165.53,165.53,0,0,0,36.1-22.87q4-3.31,7.84-6.83C497.71,483.74,494.16,480.22,491.8,482.39Z" transform="translate(-28.51 -120.22)"></path><path class="cls-4" d="M399.34,412.61a86.49,86.49,0,0,1-17.51,24.14,132.38,132.38,0,0,1-10.45,9.34c-13.68-2.54-28.32-2.31-40.73,3.94a45.89,45.89,0,0,0-21.56,23.25c-.28-.63-.58-1.28-.85-1.92a32.66,32.66,0,0,0,3.41-5.95c2-6.69-1.87-14.64-7.83-18.77-6.17-4.27-13.83-5.49-21.34-6.34-4.62-10.24-8.65-21-7.55-32.11s7.34-21.19,14.91-29.44a94.9,94.9,0,0,1,47.86-28c9-2.13,18.3-2.9,27.53-3.67,5.41-.46,10.94-.89,16.16.54,7.13,1.95,13,7.27,16.92,13.49a45,45,0,0,1,6.34,17A60,60,0,0,1,399.34,412.61Z" transform="translate(-28.51 -120.22)"></path><path d="M397.19,411.35c-6.27,13.17-16.34,23.87-27.58,33l2.43-.64c-10.47-1.92-21.34-2.38-31.75.17a48.92,48.92,0,0,0-25,15,49.59,49.59,0,0,0-8.58,13.8l4.57-.6c-.29-.64-.58-1.28-.86-1.93v2.53c2.18-3.05,4-6.32,4.27-10.12a19.14,19.14,0,0,0-2.33-9.85c-3.42-6.58-9.85-10.5-16.79-12.53a78,78,0,0,0-13.06-2.32l2.16,1.23c-3.21-7.13-6.27-14.65-7.13-22.48a38.16,38.16,0,0,1,3.76-21.25A66.78,66.78,0,0,1,294.06,378a92.72,92.72,0,0,1,39.16-23.44,127.34,127.34,0,0,1,24.13-4.25c4.09-.39,8.2-.79,12.3-1a33.35,33.35,0,0,1,11.82,1c6.22,1.93,11.25,6.73,14.68,12.13,8.29,13,8.2,29.67,3.15,43.86-.62,1.74-1.33,3.45-2.11,5.12a2.56,2.56,0,0,0,.89,3.42,2.52,2.52,0,0,0,3.42-.89c8.55-18.27,9.28-41.48-3.8-57.88a33,33,0,0,0-10.21-8.63,30.93,30.93,0,0,0-14.81-3.24c-5.34.05-10.73.68-16.05,1.2a164.7,164.7,0,0,0-16.55,2.33,97.26,97.26,0,0,0-52.56,29.94c-6.35,7-11.8,15.33-14.09,24.64-2.54,10.34-.49,20.84,3.23,30.62,1,2.51,2,5,3.1,7.43a5.5,5.5,0,0,0,.95,1.77,3.36,3.36,0,0,0,2.2.79c1.19.14,2.39.28,3.59.46,4.71.71,9.5,1.75,13.72,4.05a18.46,18.46,0,0,1,8.35,9,14.12,14.12,0,0,1,1.12,5.31,10.68,10.68,0,0,1-1.75,5.59c-.57,1-1.32,1.88-1.86,2.87-.82,1.5.23,3.07.85,4.45a2.48,2.48,0,0,0,2.5,1.2A2.6,2.6,0,0,0,311.5,474c5.55-13.3,17.64-22.61,31.58-25.61a67.8,67.8,0,0,1,23.13-.57c.93.13,1.86.27,2.79.43,1.16.19,2.54.69,3.64.05a19.36,19.36,0,0,0,2.49-2q1.26-1.05,2.49-2.13a118,118,0,0,0,8.81-8.51,86.72,86.72,0,0,0,15.07-21.7,2.57,2.57,0,0,0-.89-3.42A2.52,2.52,0,0,0,397.19,411.35Z" transform="translate(-28.51 -120.22)"></path><path class="cls-5" d="M311.65,465.41a32.66,32.66,0,0,1-3.41,5.95,39.19,39.19,0,0,1-7,7.34,60.29,60.29,0,0,1-19,10.1,88.6,88.6,0,0,1-22.44,4.38h0a91.79,91.79,0,0,1-54.59-13.6,89.93,89.93,0,0,1-26.82-26.27,92,92,0,0,1-9.83-19.13h0a88.22,88.22,0,0,1-5-20.07c-.37-3-.5-6.31,1.3-8.72,2.57-3.39,7.73-3.34,11.76-1.94,13.9,4.82,21.42,20.35,34.66,26.79a44.42,44.42,0,0,0,12.78,3.66c2.44.37,4.91.65,7.37.91l14.59,1.58h0q17.13,1.83,34.25,3.69l2.12.23c7.51.85,15.17,2.07,21.34,6.34C309.78,450.77,313.67,458.72,311.65,465.41Z" transform="translate(-28.51 -120.22)"></path><path class="cls-2" d="M309.49,464.14c-5.18,11.58-16.69,18.56-28.33,22.4a89,89,0,0,1-37.77,3.75,87.33,87.33,0,0,1-60.89-35.48A93.67,93.67,0,0,1,173,438.32a34.66,34.66,0,0,0-1.64-4l-.16-.42c-.1.45-.15.31-.16-.43-.07-.29-.23-.61-.33-.89-.32-.88-.62-1.77-.92-2.67a90.4,90.4,0,0,1-2.64-10,46.57,46.57,0,0,1-1.2-9c0-2.21.59-4.44,2.79-5.37,4.15-1.75,9.28.8,12.77,3,8.53,5.35,14.46,13.91,22.43,20a39.38,39.38,0,0,0,15.94,7.13c6.7,1.41,13.62,1.87,20.43,2.61,13.92,1.5,27.86,3,41.78,4.5,10.43,1.15,23.82,3.64,27.12,15.36a12,12,0,0,1,.07,6.63c-.89,3.1,3.93,4.42,4.82,1.33,1.62-5.65-.14-11.78-3.6-16.38-3.84-5.08-9.47-8.07-15.53-9.75-6.51-1.79-13.35-2.24-20-3l-22.34-2.41-21.51-2.32c-6.58-.7-13.44-1.52-19.36-4.65-9.46-5-15.63-14.25-23.94-20.72-4.29-3.33-9.25-6.23-14.74-6.77a12.09,12.09,0,0,0-7.8,1.67,10.06,10.06,0,0,0-4.25,7.94c-.28,3.35.45,6.88,1.06,10.17a89.32,89.32,0,0,0,2.48,10.05c.28.9.57,1.79.88,2.68.1.3.21.59.31.89,0,0,.62,1.3.4.67.29.83.48,1.71.81,2.55s.79,1.93,1.2,2.88a90.55,90.55,0,0,0,4.5,9,94.94,94.94,0,0,0,25.5,29,91.09,91.09,0,0,0,35.22,16,95.53,95.53,0,0,0,39.91.19c13-2.75,26.79-8.43,35.43-19a36.25,36.25,0,0,0,5.15-8.2,2.58,2.58,0,0,0-.9-3.42A2.51,2.51,0,0,0,309.49,464.14Z" transform="translate(-28.51 -120.22)"></path><path class="cls-6" d="M313,340a71,71,0,0,1-6.7,24.6,94.19,94.19,0,0,0-16.41,14.15C282.27,387,276,397,274.93,408.19s2.93,21.87,7.55,32.11l-2.12-.23q-17.13-1.85-34.25-3.69h0a114.32,114.32,0,0,1-8-13.12A112.93,112.93,0,0,1,231.12,334c1.59-4.69,3.8-9.61,8.13-12,4.12-2.28,9.41-1.8,13.59-3.76a10.53,10.53,0,0,0,1.71-1c3.07-2.21,4.69-6.14,8-7.95,3.95-2.17,8.84-.61,13.08,1l17.07,6.43h0l6.29,2.38c4.15,1.55,8.52,3.28,11.18,6.82a16.28,16.28,0,0,1,2.87,9.28h0A37.85,37.85,0,0,1,313,340Z" transform="translate(-28.51 -120.22)"></path><path class="cls-7" d="M310.45,340a68.51,68.51,0,0,1-6.36,23.34l.9-.9c-9.82,6.71-18.83,15.15-25.2,25.27A49.45,49.45,0,0,0,273.24,403a44.32,44.32,0,0,0,0,18.42c1.4,7,4.15,13.62,7.06,20.1l2.16-3.76-18.25-2-9.19-1-4.46-.48a42.56,42.56,0,0,0-4.48-.48l2.16,1.23A111.77,111.77,0,0,1,229,353a102.49,102.49,0,0,1,5.32-20.39,18.65,18.65,0,0,1,4.37-7.07c2.2-2,5.17-2.58,8-3.08,3.15-.55,6.44-1.12,9.12-3s4.07-4.43,6.24-6.59a7.69,7.69,0,0,1,7.31-1.86,66.68,66.68,0,0,1,10.24,3.46c4,1.5,7.94,3.26,12,4.53l.47.18c.72,0,.87,0,.45.17l1.8.67,2.69,1c1.73.65,3.48,1.26,5.15,2,3,1.38,5.73,3.18,7.16,6.24,1.53,3.28,1.41,7.18,1.14,10.7a2.51,2.51,0,0,0,2.5,2.5,2.55,2.55,0,0,0,2.5-2.5c.33-4.2.2-8.56-1.49-12.48a17,17,0,0,0-8.22-8.26,113.08,113.08,0,0,0-11.67-4.67c-.32-.12-.72-.17-1-.3-.52-.25-.22-.17-.14-.13-.51-.24-1.08-.41-1.61-.61l-3.46-1.31-6.69-2.52c-4-1.52-8.06-3.32-12.36-3.84a12.27,12.27,0,0,0-10.79,4c-2.42,2.62-4.09,5.62-7.68,6.72-3.79,1.17-7.79,1.22-11.44,2.86-7.34,3.31-9.89,12.38-11.9,19.44a117.55,117.55,0,0,0-4.29,26.27,115.9,115.9,0,0,0,9.71,52.14,113.5,113.5,0,0,0,6,11.74q1.71,2.92,3.58,5.74c.6.91,1.21,1.82,1.85,2.7.91,1.25,1.87,1.38,3.29,1.53l28.54,3.08,6.84.74c2.09.22,2.85-2.24,2.16-3.77-3.1-6.88-6-14-7-21.58a37.47,37.47,0,0,1,2.78-20.27A61.83,61.83,0,0,1,292.06,380a94.89,94.89,0,0,1,8-7.64q2-1.72,4.18-3.32c1.5-1.12,3.64-2.1,4.44-3.83A74.85,74.85,0,0,0,315.45,340a2.51,2.51,0,0,0-2.5-2.5A2.55,2.55,0,0,0,310.45,340Z" transform="translate(-28.51 -120.22)"></path><path class="cls-8" d="M565.16,393.37A596.91,596.91,0,0,1,475,460.24q-6.17,3.74-12.42,7.31a232.06,232.06,0,0,1-49.23-9.1c-13.48-4-26.65-9.31-40.46-12.07a134.39,134.39,0,0,0,26.13-14.2h0c3.4-1.2,6.74-2.55,10-4,16-7,30.86-16.36,46.84-23.4a180.61,180.61,0,0,1,69.72-15.14A177.72,177.72,0,0,1,565.16,393.37Z" transform="translate(-28.51 -120.22)"></path><path d="M563.4,391.6Q545.2,408,525.73,422.77T485.66,450.7q-12,7.64-24.31,14.7l1.27-.35a228.52,228.52,0,0,1-35.18-5.44c-11.69-2.75-23-6.71-34.4-10.38A181.87,181.87,0,0,0,373.59,444v4.83a141.46,141.46,0,0,0,14.25-6.74q3.32-1.81,6.54-3.81c1.1-.69,2.2-1.39,3.28-2.11a20.68,20.68,0,0,0,3.18-2.2l-1.11.64C421,427,439.79,414,460.64,405.47a179.09,179.09,0,0,1,65-13.33,175.94,175.94,0,0,1,38.85,3.64,2.5,2.5,0,0,0,1.33-4.82,184.38,184.38,0,0,0-81.2,1.46A186.49,186.49,0,0,0,447,406.18c-12,5.84-23.5,12.59-35.6,18.21-3.34,1.55-6.72,3-10.17,4.32l-2.64,1a5.52,5.52,0,0,0-1.33.72c.36-.25-.69.44-.83.53q-2.28,1.54-4.62,3a131.09,131.09,0,0,1-19.59,10,2.61,2.61,0,0,0-1.83,2.41,2.53,2.53,0,0,0,1.83,2.42c14.46,2.91,28.17,8.5,42.3,12.6a236.11,236.11,0,0,0,43.29,8.25l2.38.21a9.5,9.5,0,0,0,3,.11,10.47,10.47,0,0,0,2.26-1.21l2.91-1.69q4.74-2.77,9.42-5.62,9-5.51,17.82-11.3,17.61-11.61,34.39-24.45,19-14.55,36.85-30.56C569.33,393,565.78,389.46,563.4,391.6Z" transform="translate(-28.51 -120.22)"></path><path class="cls-9" d="M565.7,332.41l-40.05,57.23a180.61,180.61,0,0,0-69.72,15.14c-16,7-30.87,16.38-46.84,23.4-3.28,1.44-6.62,2.79-10,4a145.69,145.69,0,0,0,24.42-21.36c14.78-16.12,26-35.27,33.87-55.69C490.46,339.79,531.89,347.58,565.7,332.41Z" transform="translate(-28.51 -120.22)"></path><path d="M563.54,331.15,532.36,375.7q-4.43,6.35-8.86,12.67l2.15-1.23a182.12,182.12,0,0,0-76.51,18c-8,3.82-15.82,8.1-23.69,12.23a208.16,208.16,0,0,1-27.05,12.37l1.93,4.57c21.5-14.94,38.53-35.47,50.53-58.65a201.27,201.27,0,0,0,8.91-19.9l-1.15,1.5c12.87-5.93,27.08-8.27,41.06-9.87,14.63-1.66,29.39-2.56,43.85-5.51A111.78,111.78,0,0,0,567,334.57a2.52,2.52,0,0,0,.9-3.42,2.57,2.57,0,0,0-3.42-.9c-24.67,11-52.57,9.72-78.73,14.07a133,133,0,0,0-19.09,4.51,96.4,96.4,0,0,0-9.4,3.62,3.54,3.54,0,0,0-2.27,2c-.33.8-.63,1.61-.95,2.42-.61,1.53-1.25,3.06-1.9,4.58a178.34,178.34,0,0,1-20.47,35.64A147,147,0,0,1,397.81,430a2.53,2.53,0,0,0-1,3.12,2.49,2.49,0,0,0,3,1.45c12.58-4.46,24.34-10.8,36.11-17,11.49-6.09,23.08-11.88,35.44-16.05a178.09,178.09,0,0,1,38-8.36q4.95-.52,9.93-.78c1.54-.08,3.09-.14,4.63-.18a11.74,11.74,0,0,0,2.52-.13c1.15-.32,1.72-1.47,2.35-2.38q6-8.58,12-17.17l27.18-38.83a2.52,2.52,0,0,0-.9-3.42A2.55,2.55,0,0,0,563.54,331.15Z" transform="translate(-28.51 -120.22)"></path><path class="cls-10" d="M577.69,487.45A217.83,217.83,0,0,1,458.77,525c-10.56.14-21.36-.56-31.48-3.42,1.14-.28,2.27-.59,3.4-.91,23.51-6.72,44.88-19.95,62.87-36.52,3.43-3.16,7-7.84,4.95-12-1.94-3.88-7.24-4.16-11.57-4a232.17,232.17,0,0,1-24.32-.57q6.24-3.57,12.42-7.31C509.51,469.67,541.58,488.68,577.69,487.45Z" transform="translate(-28.51 -120.22)"></path><path d="M576.43,485.29A215.59,215.59,0,0,1,464,522.38c-12.07.46-24.32.07-36-3.2V524a148.27,148.27,0,0,0,47.67-22.26,157.86,157.86,0,0,0,20.42-16.49c2.89-2.84,6-6.85,5.53-11.16-.41-4.09-3.44-6.88-7.3-7.87-4.59-1.18-9.61-.5-14.29-.5q-8.7,0-17.37-.67l1.26,4.66q6.25-3.58,12.42-7.31l-1.92.25c26.9,7.39,52.1,20.58,79.71,25.47a114.58,114.58,0,0,0,23.6,1.83c3.21-.1,3.22-5.1,0-5-15.63.5-30.9-2.9-45.7-7.66-15-4.84-29.58-11-44.55-15.9-2.08-.68-4.17-1.35-6.27-2q-1.56-.48-3.15-.93c-1.09-.31-2.51-1-3.64-.65a16,16,0,0,0-3.49,2l-3.1,1.83c-2.14,1.26-4.28,2.51-6.44,3.75s-1.1,4.48,1.27,4.65q7.17.54,14.39.65c4.25.05,8.53-.26,12.78-.08,2.48.11,5.77.52,6.66,3.07,1.08,3.11-2.36,6.54-4.37,8.43a161.53,161.53,0,0,1-39.77,27.57,133.52,133.52,0,0,1-25.68,9.49,2.52,2.52,0,0,0,0,4.82c10.78,3,22.08,3.7,33.23,3.5a220.52,220.52,0,0,0,89.29-20.91,215.4,215.4,0,0,0,29.8-17C581.6,487.81,579.1,483.48,576.43,485.29Z" transform="translate(-28.51 -120.22)"></path><path class="cls-11" d="M437.58,311a307.61,307.61,0,0,0-32.93,67.17,45,45,0,0,0-6.34-17c-4-6.22-9.79-11.54-16.92-13.49-5.22-1.43-10.75-1-16.16-.54-9.23.77-18.51,1.54-27.53,3.67a94.43,94.43,0,0,0-31.45,13.86A71,71,0,0,0,313,340a37.85,37.85,0,0,0,.12-4.77h0c10.1-20,22-39.33,40.62-51.31,10.83-7,23.27-11,35.54-14.92l29.54-9.47A230.51,230.51,0,0,1,437.58,311Z" transform="translate(-28.51 -120.22)"></path><path d="M435.42,309.72a312.49,312.49,0,0,0-27.29,52.15q-3.17,7.72-5.89,15.62h4.82c-2.37-14.34-11.86-30.07-27.26-32.8a50.52,50.52,0,0,0-12.71-.28c-4.28.34-8.57.7-12.84,1.16a121,121,0,0,0-24.89,4.91,98,98,0,0,0-24.37,12l3.42,3.42a71.55,71.55,0,0,0,7.16-30.64l-.34,1.26c7.3-14.46,15.56-28.8,27.17-40.27a79.55,79.55,0,0,1,20.15-14.47c8.05-4.06,16.64-6.9,25.2-9.65q15.84-5.1,31.69-10.16l-2.83-1.15a229.07,229.07,0,0,1,18.56,50.86c.74,3.13,5.56,1.81,4.82-1.33a235.17,235.17,0,0,0-19.06-52.06,2.5,2.5,0,0,0-2.82-1.14c-11.57,3.7-23.15,7.36-34.69,11.13-10.64,3.47-21.33,7.32-30.8,13.39-17.25,11-29,28.34-38.5,46.13-.65,1.21-1.28,2.42-1.91,3.64-.71,1.39-1.6,2.72-1.62,4.31a60.87,60.87,0,0,1-.8,9.53,69.33,69.33,0,0,1-5.7,18.1,2.6,2.6,0,0,0,.39,3,2.51,2.51,0,0,0,3,.39A97.31,97.31,0,0,1,350.2,351c4-.51,8.1-.89,12.17-1.23a103.16,103.16,0,0,1,12.17-.66,23.93,23.93,0,0,1,10.09,2.36,27.88,27.88,0,0,1,7.62,5.81c5.54,5.89,8.69,13.6,10,21.5a2.51,2.51,0,0,0,2.41,1.83,2.58,2.58,0,0,0,2.41-1.83,304.52,304.52,0,0,1,24.06-52.55q4.13-7.12,8.62-14C441.5,309.54,437.17,307,435.42,309.72Z" transform="translate(-28.51 -120.22)"></path><path class="cls-12" d="M470.59,303.32C469,312,466.05,320.44,463.92,329s-8.21,17.37-6.56,26.08c-7.85,20.42-19.09,39.57-33.87,55.69a145.69,145.69,0,0,1-24.42,21.36h0a134.39,134.39,0,0,1-26.13,14.2l-.48-.1c-.36-.07-.71-.14-1.07-.19a132.38,132.38,0,0,0,10.45-9.34,86.49,86.49,0,0,0,17.51-24.14,60,60,0,0,0,5.31-34.46A307.61,307.61,0,0,1,437.58,311c13.64-13,22.9-27.57,32-44A87.16,87.16,0,0,1,470.59,303.32Z" transform="translate(-28.51 -120.22)"></path><path d="M468.18,302.66c-.9,4.82-2.19,9.56-3.53,14.27-1.27,4.47-2.34,9-3.71,13.47-2.6,8.37-7.59,16.28-6,25.38v-1.33a179.77,179.77,0,0,1-22.81,41.95,153.1,153.1,0,0,1-15.9,18.32Q411.8,419.07,407,423c-1.58,1.31-3.18,2.58-4.82,3.81-.84.63-1.69,1.26-2.55,1.87l-1.1.78c-.25.18-.5.34-.74.52l-.39.27A131,131,0,0,1,372.26,444h1.33c-.51-.11-1-.21-1.55-.29l1.1,4.18c16.37-13.26,30.77-30.69,33.94-52.14a60.55,60.55,0,0,0,0-18.23v1.33a303.81,303.81,0,0,1,21.14-47.38q3.15-5.7,6.54-11.27,1.67-2.73,3.39-5.43a15.92,15.92,0,0,1,1.69-2.45c.75-.78,1.56-1.51,2.32-2.28a143.31,143.31,0,0,0,15.42-18.64,252.68,252.68,0,0,0,14.18-23.17l-4.57-.59a85,85,0,0,1,1,35.05,2.57,2.57,0,0,0,1.75,3.07A2.53,2.53,0,0,0,473,304a91.47,91.47,0,0,0-1-37.71,2.53,2.53,0,0,0-4.57-.6c-6.22,11.26-12.88,22.37-21.12,32.29q-3.1,3.76-6.49,7.27c-1.15,1.2-2.33,2.37-3.52,3.52a22.75,22.75,0,0,0-3.09,4.42q-5.62,8.9-10.64,18.15A312.19,312.19,0,0,0,405,369.75q-.93,2.46-1.82,4.93c-.28.79-.6,1.57-.83,2.37a6.44,6.44,0,0,0,0,2.83,53.27,53.27,0,0,1,.31,10.1,59.33,59.33,0,0,1-4.61,19.36c-6,14.07-16.76,25.48-28.48,35a2.51,2.51,0,0,0,1.1,4.18c.52.08,1,.21,1.55.3a4.44,4.44,0,0,0,2.6-.53c1.61-.67,3.21-1.36,4.79-2.09q4.17-1.92,8.19-4.12a142.53,142.53,0,0,0,15.43-9.83,151.27,151.27,0,0,0,27-25.34A173.26,173.26,0,0,0,450,377.39c2.8-5.27,5.33-10.69,7.64-16.2.52-1.26,1-2.53,1.54-3.8a6.62,6.62,0,0,0,.72-2.27c0-.81-.24-1.64-.27-2.45a23.53,23.53,0,0,1,1.4-8.13c1-3.18,2.38-6.24,3.57-9.37s2-6.52,2.91-9.83c1.94-7.09,4.17-14.11,5.54-21.35a2.58,2.58,0,0,0-1.75-3.08A2.53,2.53,0,0,0,468.18,302.66Z" transform="translate(-28.51 -120.22)"></path><path class="cls-13" d="M292.72,316.74l-17.07-6.43c-4.24-1.59-9.13-3.15-13.08-1-3.33,1.81-4.95,5.74-8,7.95a10.53,10.53,0,0,1-1.71,1,196.56,196.56,0,0,0-14.29-23.09A151.05,151.05,0,0,1,270.48,304,93.49,93.49,0,0,1,292.72,316.74Z" transform="translate(-28.51 -120.22)"></path><path d="M293.38,314.33l-12.46-4.7c-3.84-1.45-7.69-3.17-11.79-3.7a12.26,12.26,0,0,0-10.49,3.26c-2.4,2.33-3.94,5.43-7.06,6.92L255,317a200.51,200.51,0,0,0-14.29-23.08l-2.82,3.67c18.82,3.28,37.82,9,53.06,20.92a2.58,2.58,0,0,0,3.54,0,2.51,2.51,0,0,0,0-3.53c-12.32-9.66-26.88-15.72-42-19.46-4.39-1.08-8.82-2-13.27-2.75-1.91-.34-4.22,1.72-2.82,3.67a201.42,201.42,0,0,1,14.28,23.09,2.56,2.56,0,0,0,3.42.9c3.15-1.51,5-4.26,7.2-6.78a8.07,8.07,0,0,1,3.41-2.54,8.91,8.91,0,0,1,4.44-.15c3.76.7,7.35,2.33,10.91,3.67l12,4.53a2.52,2.52,0,0,0,3.07-1.75A2.56,2.56,0,0,0,293.38,314.33Z" transform="translate(-28.51 -120.22)"></path><path class="cls-14" d="M223.17,431.88a44.11,44.11,0,0,1-12.77-3.65c-13.24-6.44-20.77-22-34.67-26.8-4-1.39-9.18-1.44-11.75,1.95-1.81,2.41-1.67,5.73-1.3,8.72a88.35,88.35,0,0,0,4.95,20.07,513.31,513.31,0,0,1-83.78-93.1h0q-10.16-14.55-19.32-29.77a260.24,260.24,0,0,1,82.94,39.47h0A264.44,264.44,0,0,1,223.17,431.88Z" transform="translate(-28.51 -120.22)"></path><path class="cls-2" d="M223.84,429.47a44,44,0,0,1-11.34-3,35,35,0,0,1-7.77-4.86c-4.77-3.89-8.84-8.53-13.32-12.73s-9.63-8.24-15.66-10.06a15.21,15.21,0,0,0-9.34-.09,9.47,9.47,0,0,0-6.23,7.55c-.68,4.27.31,8.82,1.15,13a90.88,90.88,0,0,0,3.88,13.56l4.18-2.43q-18.44-16-35.3-33.78t-31.79-36.8Q93.86,349,86,337.81l.34,1.26h0a2.54,2.54,0,0,0-2.5-2.5h0L86,337.8Q75.85,323.23,66.68,308l-2.82,3.67a256.28,256.28,0,0,1,66.3,28.63q4.34,2.64,8.57,5.45,2.13,1.41,4.21,2.85c1.24.86,3,2.63,4.54,2.63l-1.26-.34a266.16,266.16,0,0,1,33.27,28.17,259.74,259.74,0,0,1,28.18,33.23q7.17,10.08,13.35,20.83c1.6,2.78,5.92.27,4.31-2.53a261.81,261.81,0,0,0-25.76-36.95,267.05,267.05,0,0,0-31.65-32.07q-4.78-4.1-9.75-8c-1.72-1.33-3.44-2.65-5.19-3.95l-2.54-1.86c-.89-.65-1.81-1.57-3-1.57l1.26.34A265.87,265.87,0,0,0,84.58,313q-9.57-3.44-19.39-6.09a2.52,2.52,0,0,0-2.82,3.67q4.88,8.13,10.05,16.06,2.56,3.92,5.18,7.79,1.35,2,2.71,4c.88,1.27,1.76,3.21,3.54,3.21l-2.5-2.5a4.58,4.58,0,0,0,1.24,2.55l2,2.75c1.21,1.7,2.44,3.4,3.68,5.08q3.65,5,7.4,9.86,7.66,9.94,15.76,19.51,16,18.88,33.84,36.17,10.07,9.76,20.64,19a2.59,2.59,0,0,0,3,.39,2.53,2.53,0,0,0,1.15-2.82,90.19,90.19,0,0,1-3.39-11.27A56.42,56.42,0,0,1,165,409.51c-.08-2.54.45-5.15,3.08-6.08s5.29-.25,7.69.65c5.13,1.94,9.4,5.66,13.29,9.42,4.16,4,8,8.35,12.59,12a39.7,39.7,0,0,0,8.36,5.31,48.35,48.35,0,0,0,12.54,3.51,2.59,2.59,0,0,0,3.08-1.74A2.53,2.53,0,0,0,223.84,429.47Z" transform="translate(-28.51 -120.22)"></path><path class="cls-15" d="M246.1,436.38l-14.59-1.58c-2.46-.26-4.93-.54-7.37-.91a264.52,264.52,0,0,0-75.7-83.13A143.63,143.63,0,0,1,192.28,363h0a151.78,151.78,0,0,0,9.35,22.44c8.24,15.77,20.54,30.07,36.42,37.83A114.32,114.32,0,0,0,246.1,436.38Z" transform="translate(-28.51 -120.22)"></path><path class="cls-2" d="M246.1,433.88c-7.09-.77-14.25-1.33-21.3-2.41l1.49,1.15A261.35,261.35,0,0,0,200.8,396a265.57,265.57,0,0,0-31.12-31.71c-6.41-5.54-13.09-10.76-20-15.68l-1.26,4.65a140.23,140.23,0,0,1,22.41,4.47q5.55,1.57,11,3.59c1.74.65,3.45,1.32,5.16,2q1.18.5,2.37,1a8.16,8.16,0,0,0,2.95,1.11l-2.41-1.84c6.62,19.8,16.58,39.15,33,52.64a72,72,0,0,0,14,9.13l-.89-.9a118.12,118.12,0,0,0,8,13.12,2.56,2.56,0,0,0,3.42.89,2.52,2.52,0,0,0,.9-3.42q-3-4.19-5.56-8.62c-.79-1.34-1.48-2.74-2.27-4.08s-2.45-2-3.9-2.76A68.68,68.68,0,0,1,223.24,410a95,95,0,0,1-20.09-27.12,152.57,152.57,0,0,1-8.45-20.6,2.56,2.56,0,0,0-2.41-1.83h0l1.27.34a148.91,148.91,0,0,0-45.11-12.57A2.52,2.52,0,0,0,146,350.1a2.6,2.6,0,0,0,1.15,2.82,266.89,266.89,0,0,1,39,34,257.3,257.3,0,0,1,31.53,41q1.94,3.12,3.77,6.3a4.43,4.43,0,0,0,1.42,1.8,5.17,5.17,0,0,0,2,.46c1.45.2,2.9.38,4.35.55,5.63.64,11.27,1.22,16.9,1.83a2.5,2.5,0,1,0,0-5Z" transform="translate(-28.51 -120.22)"></path><path class="cls-16" d="M259.83,493.18c-17.6,14.82-36.63,28.58-59.09,32.06-19.52,3-39.27-2.15-58.36-7.27L49.45,493a77.87,77.87,0,0,1,75.74-54.91h0a76.67,76.67,0,0,1,11.41,1c11.37,1.88,22.16,6.25,32.84,10.59l9,3.64a89.93,89.93,0,0,0,26.82,26.27A91.79,91.79,0,0,0,259.83,493.18Z" transform="translate(-28.51 -120.22)"></path><path class="cls-2" d="M258.06,491.41c-10,8.4-20.38,16.45-32,22.54a80.27,80.27,0,0,1-37.76,9.7c-15-.06-29.55-3.87-43.9-7.72L100.19,504,50.12,490.56l1.74,3.07a75.43,75.43,0,0,1,90.93-50.71c12.05,3,23.5,8.13,35,12.8l-1.5-1.15a93.72,93.72,0,0,0,26.31,26.26A92,92,0,0,0,238,494.55a96.73,96.73,0,0,0,21.83,1.13c3.19-.2,3.21-5.2,0-5a90.05,90.05,0,0,1-47.89-10.11,85.1,85.1,0,0,1-19.42-14.18,90.86,90.86,0,0,1-8.14-9.06c-1.21-1.54-2.35-3.13-3.45-4.76a5.22,5.22,0,0,0-2.74-2l-3.36-1.37c-8.43-3.42-16.83-7-25.54-9.64a86.6,86.6,0,0,0-26.3-4,80.78,80.78,0,0,0-46.94,15.78A82.08,82.08,0,0,0,48.9,487q-1,2.63-1.86,5.31a2.54,2.54,0,0,0,1.75,3.08l90.52,24.35c14.66,3.94,29.48,8,44.73,8.8a84.39,84.39,0,0,0,40.49-8.22c13.6-6.42,25.62-15.73,37.06-25.36a2.52,2.52,0,0,0,0-3.54A2.55,2.55,0,0,0,258.06,491.41Z" transform="translate(-28.51 -120.22)"></path><path class="cls-10" d="M178.42,453.31l-9-3.64c-10.68-4.34-21.47-8.71-32.84-10.59a76.67,76.67,0,0,0-11.41-1h0c-13.07-8.44-23.87-20.19-34.42-31.74Q76.42,390.6,62.06,374.9L49.89,361.57c-3.65-4-7.57-9-6.09-14.24a10.4,10.4,0,0,1,5.68-6.22,24.37,24.37,0,0,1,8.4-2,80.24,80.24,0,0,1,26.92,1.95h0a513,513,0,0,0,83.78,93.1h0A92,92,0,0,0,178.42,453.31Z" transform="translate(-28.51 -120.22)"></path><path class="cls-2" d="M179.08,450.9c-17.2-7-34.93-15.34-53.89-15.34l1.26.35c-8.68-5.64-16.29-12.71-23.46-20.14-7.62-7.88-14.91-16.09-22.3-24.19L57.25,365.92c-3.43-3.76-7.51-7.42-10-11.92a8.06,8.06,0,0,1-1.11-5.81,7.53,7.53,0,0,1,3.58-4.39,18.3,18.3,0,0,1,7.49-2.12,78.6,78.6,0,0,1,9.2-.44,77.19,77.19,0,0,1,9.49.66c1.51.2,3,.46,4.5.75a25,25,0,0,0,4.39.91l-2.5-2.5a4.71,4.71,0,0,0,1.24,2.56l2,2.74c1.22,1.7,2.44,3.4,3.68,5.09q3.64,5,7.41,9.86,7.65,9.93,15.76,19.5,16,18.88,33.83,36.17,10.06,9.76,20.64,19l-.73-1.77a7.65,7.65,0,0,0,.81,2.56q.58,1.45,1.2,2.88,1.11,2.58,2.38,5.08a92.72,92.72,0,0,0,5.78,9.88c1.78,2.67,6.11.17,4.32-2.52a92.6,92.6,0,0,1-7.06-12.5c-.48-1-.94-2.06-1.37-3.11-.23-.55-.46-1.11-.67-1.67-.08-.2-.15-.42-.24-.62s-.12-.28-.15,0l-.09-.66c-.34-1.22-1.76-2.08-2.67-2.88l-2.69-2.37q-10.8-9.63-21-19.84a511.77,511.77,0,0,1-38.28-42.74Q96.23,353.06,87,339.81l.34,1.26h0a2.53,2.53,0,0,0-2.5-2.5c.71,0-.78-.25-.73-.24-.47-.1-.93-.21-1.4-.3-.93-.2-1.87-.37-2.8-.54q-3.15-.54-6.32-.85a79,79,0,0,0-11.41-.32c-6.95.3-15.18,1-19.41,7.39s.15,13.71,4.56,18.72c5.11,5.81,10.44,11.45,15.67,17.17,10.67,11.68,21.25,23.46,32.05,35,4.94,5.3,10,10.51,15.46,15.3q4,3.57,8.38,6.78,2.13,1.57,4.33,3a4.47,4.47,0,0,0,2.48.83c1,.05,1.91.06,2.87.11,17.28,1,33.42,8.61,49.22,15a2.51,2.51,0,0,0,3.07-1.74A2.57,2.57,0,0,0,179.08,450.9Z" transform="translate(-28.51 -120.22)"></path><path class="cls-2" d="M318.34,492.74q-6.64,87.32-7.42,175.09c0,4.58-.09,9.31-1.55,13.52s-4,3-7.64,2.84-7.34.74-8.54-3.52-1-8.91-.79-13.43q4.43-93.37,8.84-186.73a45.72,45.72,0,0,0,7-9.15c.27.8.57,1.6.85,2.4A108.35,108.35,0,0,0,318.34,492.74Z" transform="translate(-28.51 -120.22)"></path><path class="cls-2" d="M315.84,492.74q-3.1,40.83-4.93,81.74t-2.36,81.65c-.05,3.4-.08,6.81-.12,10.21a84,84,0,0,1-.37,9.52,23.34,23.34,0,0,1-.83,4,7.08,7.08,0,0,1-.58,1.53c-.35.64.17-.11-.25.38s.21,0-.23.17c.5-.25-.81.1-.25.06a8.72,8.72,0,0,1-1.25,0c-1-.07-2.06-.22-3.1-.27s-2.1,0-3.15,0a4.14,4.14,0,0,1-2.1-.41,4,4,0,0,1-.95-2.12,25.29,25.29,0,0,1-.59-4.6c-.14-3.25.08-6.52.24-9.77.16-3.5.33-7,.49-10.48q2-40.95,3.88-81.89t3.88-81.88c.16-3.33.32-6.65.47-10l-.73,1.77a50.15,50.15,0,0,0,7.38-9.66l-4.57-.6a113.72,113.72,0,0,0,10.36,22c1.67,2.75,6,.24,4.31-2.52a107.43,107.43,0,0,1-9.84-20.79,2.53,2.53,0,0,0-4.57-.6,43,43,0,0,1-5.7,7.7,5.55,5.55,0,0,0-1.55,2,15.89,15.89,0,0,0-.21,3.16c-.08,1.84-.17,3.67-.26,5.5l-1,21.71-2.07,43.69q-2.07,43.44-4.12,86.87l-1,21.47c-.16,3.54-.42,7.09-.39,10.64,0,3.26.17,7.09,1.67,10.06,1.24,2.47,3.65,3.46,6.27,3.67,2.19.17,4.39.11,6.59.31s4.3-.15,5.83-1.84c2.11-2.3,2.58-6,2.93-9a92.26,92.26,0,0,0,.41-10.25c0-3.65.08-7.3.13-11q.14-10.71.38-21.41.48-21.68,1.31-43.32,1.68-43.53,4.8-87,.38-5.21.78-10.42a2.5,2.5,0,0,0-5,0Z" transform="translate(-28.51 -120.22)"></path><path class="cls-17" d="M231.12,334a112.93,112.93,0,0,0,6.94,89.22c-15.88-7.76-28.18-22.06-36.42-37.83A151.78,151.78,0,0,1,192.29,363c-9-32.57-17.29-66.08-22.85-99.42a38.15,38.15,0,0,1-.76-10.54c.39-3.51,1.84-7.06,4.64-9.22,3.16-2.45,7.59-2.77,11.45-1.72s7.27,3.29,10.52,5.64a154.91,154.91,0,0,1,43.26,47.45,196.56,196.56,0,0,1,14.29,23.09c-4.18,2-9.47,1.48-13.59,3.76C234.92,324.43,232.71,329.35,231.12,334Z" transform="translate(-28.51 -120.22)"></path><path class="cls-18" d="M228.71,333.38a116.3,116.3,0,0,0-.84,71.9,117.73,117.73,0,0,0,8,19.24l3.42-3.42c-16.39-8.07-28.42-22.71-36.48-38.81a140.36,140.36,0,0,1-6.2-14.44c-1.91-5.2-3.32-10.51-4.76-15.84q-4.37-16.17-8.32-32.43c-2.62-10.87-5.07-21.78-7.28-32.73q-1.67-8.24-3.15-16.52c-.95-5.32-2.38-10.9-2-16.34.24-3.85,2-8,5.91-9.38,4.23-1.47,8.67,0,12.36,2.18A92.29,92.29,0,0,1,201,255.26q5.61,4.58,10.79,9.66a151.43,151.43,0,0,1,18.35,21.76c2.82,4.08,5.29,8.37,8.11,12.44q4.53,6.54,8.54,13.44,2,3.45,3.85,7l.9-3.42c-2.31,1-5,1.26-7.43,1.73a18.2,18.2,0,0,0-7.4,2.82c-4.23,3.08-6.39,7.91-8,12.72a2.5,2.5,0,1,0,4.82,1.32c1.31-3.8,3-8.16,6.66-10.33a18.8,18.8,0,0,1,6.5-1.93,30.56,30.56,0,0,0,7.41-2A2.54,2.54,0,0,0,255,317q-3.94-7.44-8.49-14.56c-1.52-2.36-3.09-4.7-4.71-7-1.45-2.06-2.7-4.25-4.05-6.38a157.2,157.2,0,0,0-41.2-43.49c-4.24-3.06-8.78-5.81-14.07-6.43a14.13,14.13,0,0,0-13,5c-3.22,4.16-3.8,9.57-3.27,14.64.62,5.84,1.83,11.65,2.89,17.42,2.11,11.37,4.5,22.69,7.09,34s5.43,22.69,8.39,34q2.2,8.36,4.5,16.69A127.75,127.75,0,0,0,194.9,377c7.58,17.88,19.22,34.67,35.9,45.13a66.2,66.2,0,0,0,6,3.34,2.52,2.52,0,0,0,3.42-3.42,111.11,111.11,0,0,1-11.42-67.88,113.92,113.92,0,0,1,4.74-19.42C234.57,331.65,229.74,330.34,228.71,333.38Z" transform="translate(-28.51 -120.22)"></path><path class="cls-19" d="M171.75,245.64c-6.68-4.74-5.91,30.74-1.89,22.6" transform="translate(-28.51 -120.22)"></path><path class="cls-20" d="M168.18,269.46c-.88-4.72-1.77-8.4-1.88-14.11,0-1.18.31-6.77,1.64-8.33a10.38,10.38,0,0,1,2.86-2.59" transform="translate(-28.51 -120.22)"></path></svg><style>@media (prefers-color-scheme: light) { :root { filter: none; } }
</style></svg>